<?xml version="1.0" encoding="UTF-8" standalone="no"?>
<svg
   xmlns:dc="http://purl.org/dc/elements/1.1/"
   xmlns:cc="http://creativecommons.org/ns#"
   xmlns:rdf="http://www.w3.org/1999/02/22-rdf-syntax-ns#"
   xmlns:svg="http://www.w3.org/2000/svg"
   xmlns="http://www.w3.org/2000/svg"
   xmlns:xlink="http://www.w3.org/1999/xlink"
   xmlns:sodipodi="http://sodipodi.sourceforge.net/DTD/sodipodi-0.dtd"
   xmlns:inkscape="http://www.inkscape.org/namespaces/inkscape"
   width="800"
   height="600"
   viewBox="0 0 211.66666 158.75"
   version="1.1"
   id="svg8"
   inkscape:version="1.0.2-2 (e86c870879, 2021-01-15)"
   sodipodi:docname="hopr-overallquality-ant.svg">
  <defs
     id="defs2">
    <rect
       x="148.16666"
       y="29.104166"
       width="15.875"
       height="5.2916666"
       id="rect3116" />
    <style
       type="text/css"
       id="style835">*{stroke-linecap:butt;stroke-linejoin:round;}</style>
    <path
       d="M 37.25 0  L 28.46875 0  L 28.46875 56  Q 25.296875 52.984375 20.140625 49.953125  Q 14.984375 46.921875 10.890625 45.40625  L 10.890625 53.90625  Q 18.265625 57.375 23.78125 62.296875  Q 29.296875 67.234375 31.59375 71.875  L 37.25 71.875  z "
       id="ArialMT-49" />
    <path
       d="M 50.34375 8.453125  L 50.34375 0  L 3.03125 0  Q 2.9375 3.171875 4.046875 6.109375  Q 5.859375 10.9375 9.828125 15.625  Q 13.8125 20.3125 21.34375 26.46875  Q 33.015625 36.03125 37.109375 41.625  Q 41.21875 47.21875 41.21875 52.203125  Q 41.21875 57.421875 37.46875 61  Q 33.734375 64.59375 27.734375 64.59375  Q 21.390625 64.59375 17.578125 60.78125  Q 13.765625 56.984375 13.71875 50.25  L 4.6875 51.171875  Q 5.609375 61.28125 11.65625 66.578125  Q 17.71875 71.875 27.9375 71.875  Q 38.234375 71.875 44.234375 66.15625  Q 50.25 60.453125 50.25 52  Q 50.25 47.703125 48.484375 43.546875  Q 46.734375 39.40625 42.65625 34.8125  Q 38.578125 30.21875 29.109375 22.21875  Q 21.1875 15.578125 18.9375 13.203125  Q 16.703125 10.84375 15.234375 8.453125  z "
       id="ArialMT-50" />
    <path
       d="M 4.203125 18.890625  L 12.984375 20.0625  Q 14.5 12.59375 18.140625 9.296875  Q 21.78125 6 27 6  Q 33.203125 6 37.46875 10.296875  Q 41.75 14.59375 41.75 20.953125  Q 41.75 27 37.796875 30.921875  Q 33.84375 34.859375 27.734375 34.859375  Q 25.25 34.859375 21.53125 33.890625  L 22.515625 41.609375  Q 23.390625 41.5 23.921875 41.5  Q 29.546875 41.5 34.03125 44.421875  Q 38.53125 47.359375 38.53125 53.46875  Q 38.53125 58.296875 35.25 61.46875  Q 31.984375 64.65625 26.8125 64.65625  Q 21.6875 64.65625 18.265625 61.421875  Q 14.84375 58.203125 13.875 51.765625  L 5.078125 53.328125  Q 6.6875 62.15625 12.390625 67.015625  Q 18.109375 71.875 26.609375 71.875  Q 32.46875 71.875 37.390625 69.359375  Q 42.328125 66.84375 44.9375 62.5  Q 47.5625 58.15625 47.5625 53.265625  Q 47.5625 48.640625 45.0625 44.828125  Q 42.578125 41.015625 37.703125 38.765625  Q 44.046875 37.3125 47.5625 32.6875  Q 51.078125 28.078125 51.078125 21.140625  Q 51.078125 11.765625 44.234375 5.25  Q 37.40625 -1.265625 26.953125 -1.265625  Q 17.53125 -1.265625 11.296875 4.34375  Q 5.078125 9.96875 4.203125 18.890625  z "
       id="ArialMT-51" />
    <path
       d="M 32.328125 0  L 32.328125 17.140625  L 1.265625 17.140625  L 1.265625 25.203125  L 33.9375 71.578125  L 41.109375 71.578125  L 41.109375 25.203125  L 50.78125 25.203125  L 50.78125 17.140625  L 41.109375 17.140625  L 41.109375 0  z M 32.328125 25.203125  L 32.328125 57.46875  L 9.90625 25.203125  z "
       id="ArialMT-52" />
    <path
       d="M 4.15625 18.75  L 13.375 19.53125  Q 14.40625 12.796875 18.140625 9.390625  Q 21.875 6 27.15625 6  Q 33.5 6 37.890625 10.78125  Q 42.28125 15.578125 42.28125 23.484375  Q 42.28125 31 38.0625 35.34375  Q 33.84375 39.703125 27 39.703125  Q 22.75 39.703125 19.328125 37.765625  Q 15.921875 35.84375 13.96875 32.765625  L 5.71875 33.84375  L 12.640625 70.609375  L 48.25 70.609375  L 48.25 62.203125  L 19.671875 62.203125  L 15.828125 42.96875  Q 22.265625 47.46875 29.34375 47.46875  Q 38.71875 47.46875 45.15625 40.96875  Q 51.609375 34.46875 51.609375 24.265625  Q 51.609375 14.546875 45.953125 7.46875  Q 39.0625 -1.21875 27.15625 -1.21875  Q 17.390625 -1.21875 11.203125 4.25  Q 5.03125 9.71875 4.15625 18.75  z "
       id="ArialMT-53" />
    <path
       d="M 49.75 54.046875  L 41.015625 53.375  Q 39.84375 58.546875 37.703125 60.890625  Q 34.125 64.65625 28.90625 64.65625  Q 24.703125 64.65625 21.53125 62.3125  Q 17.390625 59.28125 14.984375 53.46875  Q 12.59375 47.65625 12.5 36.921875  Q 15.671875 41.75 20.265625 44.09375  Q 24.859375 46.4375 29.890625 46.4375  Q 38.671875 46.4375 44.84375 39.96875  Q 51.03125 33.5 51.03125 23.25  Q 51.03125 16.5 48.125 10.71875  Q 45.21875 4.9375 40.140625 1.859375  Q 35.0625 -1.21875 28.609375 -1.21875  Q 17.625 -1.21875 10.6875 6.859375  Q 3.765625 14.9375 3.765625 33.5  Q 3.765625 54.25 11.421875 63.671875  Q 18.109375 71.875 29.4375 71.875  Q 37.890625 71.875 43.28125 67.140625  Q 48.6875 62.40625 49.75 54.046875  z M 13.875 23.1875  Q 13.875 18.65625 15.796875 14.5  Q 17.71875 10.359375 21.1875 8.171875  Q 24.65625 6 28.46875 6  Q 34.03125 6 38.03125 10.484375  Q 42.046875 14.984375 42.046875 22.703125  Q 42.046875 30.125 38.078125 34.390625  Q 34.125 38.671875 28.125 38.671875  Q 22.171875 38.671875 18.015625 34.390625  Q 13.875 30.125 13.875 23.1875  z "
       id="ArialMT-54" />
    <path
       d="M 4.734375 62.203125  L 4.734375 70.65625  L 51.078125 70.65625  L 51.078125 63.8125  Q 44.234375 56.546875 37.515625 44.484375  Q 30.8125 32.421875 27.15625 19.671875  Q 24.515625 10.6875 23.78125 0  L 14.75 0  Q 14.890625 8.453125 18.0625 20.40625  Q 21.234375 32.375 27.171875 43.484375  Q 33.109375 54.59375 39.796875 62.203125  z "
       id="ArialMT-55" />
    <path
       d="M 17.671875 38.8125  Q 12.203125 40.828125 9.5625 44.53125  Q 6.9375 48.25 6.9375 53.421875  Q 6.9375 61.234375 12.546875 66.546875  Q 18.171875 71.875 27.484375 71.875  Q 36.859375 71.875 42.578125 66.421875  Q 48.296875 60.984375 48.296875 53.171875  Q 48.296875 48.1875 45.671875 44.5  Q 43.0625 40.828125 37.75 38.8125  Q 44.34375 36.671875 47.78125 31.875  Q 51.21875 27.09375 51.21875 20.453125  Q 51.21875 11.28125 44.71875 5.03125  Q 38.234375 -1.21875 27.640625 -1.21875  Q 17.046875 -1.21875 10.546875 5.046875  Q 4.046875 11.328125 4.046875 20.703125  Q 4.046875 27.6875 7.59375 32.390625  Q 11.140625 37.109375 17.671875 38.8125  z M 15.921875 53.71875  Q 15.921875 48.640625 19.1875 45.40625  Q 22.46875 42.1875 27.6875 42.1875  Q 32.765625 42.1875 36.015625 45.375  Q 39.265625 48.578125 39.265625 53.21875  Q 39.265625 58.0625 35.90625 61.359375  Q 32.5625 64.65625 27.59375 64.65625  Q 22.5625 64.65625 19.234375 61.421875  Q 15.921875 58.203125 15.921875 53.71875  z M 13.09375 20.65625  Q 13.09375 16.890625 14.875 13.375  Q 16.65625 9.859375 20.171875 7.921875  Q 23.6875 6 27.734375 6  Q 34.03125 6 38.125 10.046875  Q 42.234375 14.109375 42.234375 20.359375  Q 42.234375 26.703125 38.015625 30.859375  Q 33.796875 35.015625 27.4375 35.015625  Q 21.234375 35.015625 17.15625 30.90625  Q 13.09375 26.8125 13.09375 20.65625  z "
       id="ArialMT-56" />
    <path
       d="M 5.46875 16.546875  L 13.921875 17.328125  Q 14.984375 11.375 18.015625 8.6875  Q 21.046875 6 25.78125 6  Q 29.828125 6 32.875 7.859375  Q 35.9375 9.71875 37.890625 12.8125  Q 39.84375 15.921875 41.15625 21.1875  Q 42.484375 26.46875 42.484375 31.9375  Q 42.484375 32.515625 42.4375 33.6875  Q 39.796875 29.5 35.234375 26.875  Q 30.671875 24.265625 25.34375 24.265625  Q 16.453125 24.265625 10.296875 30.703125  Q 4.15625 37.15625 4.15625 47.703125  Q 4.15625 58.59375 10.578125 65.234375  Q 17 71.875 26.65625 71.875  Q 33.640625 71.875 39.421875 68.109375  Q 45.21875 64.359375 48.21875 57.390625  Q 51.21875 50.4375 51.21875 37.25  Q 51.21875 23.53125 48.234375 15.40625  Q 45.265625 7.28125 39.375 3.03125  Q 33.5 -1.21875 25.59375 -1.21875  Q 17.1875 -1.21875 11.859375 3.4375  Q 6.546875 8.109375 5.46875 16.546875  z M 41.453125 48.140625  Q 41.453125 55.71875 37.421875 60.15625  Q 33.40625 64.59375 27.734375 64.59375  Q 21.875 64.59375 17.53125 59.8125  Q 13.1875 55.03125 13.1875 47.40625  Q 13.1875 40.578125 17.3125 36.296875  Q 21.4375 32.03125 27.484375 32.03125  Q 33.59375 32.03125 37.515625 36.296875  Q 41.453125 40.578125 41.453125 48.140625  z "
       id="ArialMT-57" />
    <path
       d="M 4.15625 35.296875  Q 4.15625 48 6.765625 55.734375  Q 9.375 63.484375 14.515625 67.671875  Q 19.671875 71.875 27.484375 71.875  Q 33.25 71.875 37.59375 69.546875  Q 41.9375 67.234375 44.765625 62.859375  Q 47.609375 58.5 49.21875 52.21875  Q 50.828125 45.953125 50.828125 35.296875  Q 50.828125 22.703125 48.234375 14.96875  Q 45.65625 7.234375 40.5 3  Q 35.359375 -1.21875 27.484375 -1.21875  Q 17.140625 -1.21875 11.234375 6.203125  Q 4.15625 15.140625 4.15625 35.296875  z M 13.1875 35.296875  Q 13.1875 17.671875 17.3125 11.828125  Q 21.4375 6 27.484375 6  Q 33.546875 6 37.671875 11.859375  Q 41.796875 17.71875 41.796875 35.296875  Q 41.796875 52.984375 37.671875 58.78125  Q 33.546875 64.59375 27.390625 64.59375  Q 21.34375 64.59375 17.71875 59.46875  Q 13.1875 52.9375 13.1875 35.296875  z "
       id="ArialMT-48" />
    <path
       d="M 4.828125 34.859375  Q 4.828125 52.6875 14.390625 62.765625  Q 23.96875 72.859375 39.109375 72.859375  Q 49.03125 72.859375 56.984375 68.109375  Q 64.9375 63.375 69.109375 54.90625  Q 73.296875 46.4375 73.296875 35.6875  Q 73.296875 24.8125 68.890625 16.21875  Q 64.5 7.625 56.4375 3.203125  Q 48.390625 -1.21875 39.0625 -1.21875  Q 28.953125 -1.21875 20.984375 3.65625  Q 13.03125 8.546875 8.921875 16.984375  Q 4.828125 25.4375 4.828125 34.859375  z M 14.59375 34.71875  Q 14.59375 21.78125 21.546875 14.328125  Q 28.515625 6.890625 39.015625 6.890625  Q 49.703125 6.890625 56.609375 14.40625  Q 63.53125 21.921875 63.53125 35.75  Q 63.53125 44.484375 60.578125 51  Q 57.625 57.515625 51.921875 61.109375  Q 46.234375 64.703125 39.15625 64.703125  Q 29.109375 64.703125 21.84375 57.78125  Q 14.59375 50.875 14.59375 34.71875  z "
       id="ArialMT-79" />
    <path
       d="M 21 0  L 1.265625 51.859375  L 10.546875 51.859375  L 21.6875 20.796875  Q 23.484375 15.765625 25 10.359375  Q 26.171875 14.453125 28.265625 20.21875  L 39.796875 51.859375  L 48.828125 51.859375  L 29.203125 0  z "
       id="ArialMT-118" />
    <path
       d="M 42.09375 16.703125  L 51.171875 15.578125  Q 49.03125 7.625 43.21875 3.21875  Q 37.40625 -1.171875 28.375 -1.171875  Q 17 -1.171875 10.328125 5.828125  Q 3.65625 12.84375 3.65625 25.484375  Q 3.65625 38.578125 10.390625 45.796875  Q 17.140625 53.03125 27.875 53.03125  Q 38.28125 53.03125 44.875 45.953125  Q 51.46875 38.875 51.46875 26.03125  Q 51.46875 25.25 51.421875 23.6875  L 12.75 23.6875  Q 13.234375 15.140625 17.578125 10.59375  Q 21.921875 6.0625 28.421875 6.0625  Q 33.25 6.0625 36.671875 8.59375  Q 40.09375 11.140625 42.09375 16.703125  z M 13.234375 30.90625  L 42.1875 30.90625  Q 41.609375 37.453125 38.875 40.71875  Q 34.671875 45.796875 27.984375 45.796875  Q 21.921875 45.796875 17.796875 41.75  Q 13.671875 37.703125 13.234375 30.90625  z "
       id="ArialMT-101" />
    <path
       d="M 6.5 0  L 6.5 51.859375  L 14.40625 51.859375  L 14.40625 44  Q 17.4375 49.515625 20 51.265625  Q 22.5625 53.03125 25.640625 53.03125  Q 30.078125 53.03125 34.671875 50.203125  L 31.640625 42.046875  Q 28.421875 43.953125 25.203125 43.953125  Q 22.3125 43.953125 20.015625 42.21875  Q 17.71875 40.484375 16.75 37.40625  Q 15.28125 32.71875 15.28125 27.15625  L 15.28125 0  z "
       id="ArialMT-114" />
    <path
       d="M 40.4375 6.390625  Q 35.546875 2.25 31.03125 0.53125  Q 26.515625 -1.171875 21.34375 -1.171875  Q 12.796875 -1.171875 8.203125 3  Q 3.609375 7.171875 3.609375 13.671875  Q 3.609375 17.484375 5.34375 20.625  Q 7.078125 23.78125 9.890625 25.6875  Q 12.703125 27.59375 16.21875 28.5625  Q 18.796875 29.25 24.03125 29.890625  Q 34.671875 31.15625 39.703125 32.90625  Q 39.75 34.71875 39.75 35.203125  Q 39.75 40.578125 37.25 42.78125  Q 33.890625 45.75 27.25 45.75  Q 21.046875 45.75 18.09375 43.578125  Q 15.140625 41.40625 13.71875 35.890625  L 5.125 37.0625  Q 6.296875 42.578125 8.984375 45.96875  Q 11.671875 49.359375 16.75 51.1875  Q 21.828125 53.03125 28.515625 53.03125  Q 35.15625 53.03125 39.296875 51.46875  Q 43.453125 49.90625 45.40625 47.53125  Q 47.359375 45.171875 48.140625 41.546875  Q 48.578125 39.3125 48.578125 33.453125  L 48.578125 21.734375  Q 48.578125 9.46875 49.140625 6.21875  Q 49.703125 2.984375 51.375 0  L 42.1875 0  Q 40.828125 2.734375 40.4375 6.390625  z M 39.703125 26.03125  Q 34.90625 24.078125 25.34375 22.703125  Q 19.921875 21.921875 17.671875 20.9375  Q 15.4375 19.96875 14.203125 18.09375  Q 12.984375 16.21875 12.984375 13.921875  Q 12.984375 10.40625 15.640625 8.0625  Q 18.3125 5.71875 23.4375 5.71875  Q 28.515625 5.71875 32.46875 7.9375  Q 36.421875 10.15625 38.28125 14.015625  Q 39.703125 17 39.703125 22.796875  z "
       id="ArialMT-97" />
    <path
       d="M 6.390625 0  L 6.390625 71.578125  L 15.1875 71.578125  L 15.1875 0  z "
       id="ArialMT-108" />
    <path
       d="M 61.96875 7.671875  Q 68.5625 3.125 74.125 1.03125  L 71.34375 -5.5625  Q 63.625 -2.78125 55.953125 3.21875  Q 48 -1.21875 38.375 -1.21875  Q 28.65625 -1.21875 20.75 3.46875  Q 12.84375 8.15625 8.5625 16.640625  Q 4.296875 25.140625 4.296875 35.796875  Q 4.296875 46.390625 8.59375 55.078125  Q 12.890625 63.765625 20.828125 68.3125  Q 28.765625 72.859375 38.578125 72.859375  Q 48.484375 72.859375 56.4375 68.140625  Q 64.40625 63.421875 68.578125 54.953125  Q 72.75 46.484375 72.75 35.84375  Q 72.75 27 70.0625 19.9375  Q 67.390625 12.890625 61.96875 7.671875  z M 41.109375 19.78125  Q 49.3125 17.484375 54.640625 12.9375  Q 62.984375 20.5625 62.984375 35.84375  Q 62.984375 44.53125 60.03125 51.015625  Q 57.078125 57.515625 51.390625 61.109375  Q 45.703125 64.703125 38.625 64.703125  Q 28.03125 64.703125 21.046875 57.453125  Q 14.0625 50.203125 14.0625 35.796875  Q 14.0625 21.828125 20.96875 14.359375  Q 27.875 6.890625 38.625 6.890625  Q 43.703125 6.890625 48.1875 8.796875  Q 43.75 11.671875 38.8125 12.890625  z "
       id="ArialMT-81" />
    <path
       d="M 40.578125 0  L 40.578125 7.625  Q 34.515625 -1.171875 24.125 -1.171875  Q 19.53125 -1.171875 15.546875 0.578125  Q 11.578125 2.34375 9.640625 5  Q 7.71875 7.671875 6.9375 11.53125  Q 6.390625 14.109375 6.390625 19.734375  L 6.390625 51.859375  L 15.1875 51.859375  L 15.1875 23.09375  Q 15.1875 16.21875 15.71875 13.8125  Q 16.546875 10.359375 19.234375 8.375  Q 21.921875 6.390625 25.875 6.390625  Q 29.828125 6.390625 33.296875 8.421875  Q 36.765625 10.453125 38.203125 13.9375  Q 39.65625 17.4375 39.65625 24.078125  L 39.65625 51.859375  L 48.4375 51.859375  L 48.4375 0  z "
       id="ArialMT-117" />
    <path
       d="M 4.5 23  L 13.421875 23.78125  Q 14.0625 18.40625 16.375 14.96875  Q 18.703125 11.53125 23.578125 9.40625  Q 28.46875 7.28125 34.578125 7.28125  Q 39.984375 7.28125 44.140625 8.890625  Q 48.296875 10.5 50.3125 13.296875  Q 52.34375 16.109375 52.34375 19.4375  Q 52.34375 22.796875 50.390625 25.3125  Q 48.4375 27.828125 43.953125 29.546875  Q 41.0625 30.671875 31.203125 33.03125  Q 21.34375 35.40625 17.390625 37.5  Q 12.25 40.1875 9.734375 44.15625  Q 7.234375 48.140625 7.234375 53.078125  Q 7.234375 58.5 10.296875 63.203125  Q 13.375 67.921875 19.28125 70.359375  Q 25.203125 72.796875 32.421875 72.796875  Q 40.375 72.796875 46.453125 70.234375  Q 52.546875 67.671875 55.8125 62.6875  Q 59.078125 57.71875 59.328125 51.421875  L 50.25 50.734375  Q 49.515625 57.515625 45.28125 60.984375  Q 41.0625 64.453125 32.8125 64.453125  Q 24.21875 64.453125 20.28125 61.296875  Q 16.359375 58.15625 16.359375 53.71875  Q 16.359375 49.859375 19.140625 47.359375  Q 21.875 44.875 33.421875 42.265625  Q 44.96875 39.65625 49.265625 37.703125  Q 55.515625 34.8125 58.484375 30.390625  Q 61.46875 25.984375 61.46875 20.21875  Q 61.46875 14.5 58.203125 9.4375  Q 54.9375 4.390625 48.796875 1.578125  Q 42.671875 -1.21875 35.015625 -1.21875  Q 25.296875 -1.21875 18.71875 1.609375  Q 12.15625 4.4375 8.421875 10.125  Q 4.6875 15.828125 4.5 23  z "
       id="ArialMT-83" />
    <path
       d="M 7.71875 0  L 7.71875 71.578125  L 34.71875 71.578125  Q 41.84375 71.578125 45.609375 70.90625  Q 50.875 70.015625 54.4375 67.546875  Q 58.015625 65.09375 60.1875 60.640625  Q 62.359375 56.203125 62.359375 50.875  Q 62.359375 41.75 56.546875 35.421875  Q 50.734375 29.109375 35.546875 29.109375  L 17.1875 29.109375  L 17.1875 0  z M 17.1875 37.546875  L 35.6875 37.546875  Q 44.875 37.546875 48.734375 40.96875  Q 52.59375 44.390625 52.59375 50.59375  Q 52.59375 55.078125 50.3125 58.265625  Q 48.046875 61.46875 44.34375 62.5  Q 41.9375 63.140625 35.5 63.140625  L 17.1875 63.140625  z "
       id="ArialMT-80" />
    <path
       d="M 6.640625 61.46875  L 6.640625 71.578125  L 15.4375 71.578125  L 15.4375 61.46875  z M 6.640625 0  L 6.640625 51.859375  L 15.4375 51.859375  L 15.4375 0  z "
       id="ArialMT-105" />
    <path
       d="M 40.4375 19  L 49.078125 17.875  Q 47.65625 8.9375 41.8125 3.875  Q 35.984375 -1.171875 27.484375 -1.171875  Q 16.84375 -1.171875 10.375 5.78125  Q 3.90625 12.75 3.90625 25.734375  Q 3.90625 34.125 6.6875 40.421875  Q 9.46875 46.734375 15.15625 49.875  Q 20.84375 53.03125 27.546875 53.03125  Q 35.984375 53.03125 41.359375 48.75  Q 46.734375 44.484375 48.25 36.625  L 39.703125 35.296875  Q 38.484375 40.53125 35.375 43.15625  Q 32.28125 45.796875 27.875 45.796875  Q 21.234375 45.796875 17.078125 41.03125  Q 12.9375 36.28125 12.9375 25.984375  Q 12.9375 15.53125 16.9375 10.796875  Q 20.953125 6.0625 27.390625 6.0625  Q 32.5625 6.0625 36.03125 9.234375  Q 39.5 12.40625 40.4375 19  z "
       id="ArialMT-99" />
    <path
       d="M 0 3.535534  L 2.12132 0  L 0 -3.535534  L -2.12132 0  z "
       id="m326c6105c1"
       style="stroke:#4b4b4b;stroke-linejoin:miter;" />
    <clipPath
       id="p3d4fa7853e">
      <rect
         height="434.88"
         width="558"
         x="90"
         y="69.12"
         id="rect1474" />
    </clipPath>
  </defs>
  <sodipodi:namedview
     id="base"
     pagecolor="#2a2a2a"
     bordercolor="#666666"
     borderopacity="1.0"
     inkscape:pageopacity="0"
     inkscape:pageshadow="2"
     inkscape:zoom="0.98994949"
     inkscape:cx="217.55582"
     inkscape:cy="-7.3247544"
     inkscape:document-units="px"
     inkscape:current-layer="layer2"
     inkscape:document-rotation="0"
     showgrid="true"
     inkscape:pagecheckerboard="true"
     inkscape:showpageshadow="false"
     borderlayer="true"
     units="px"
     width="800px"
     inkscape:window-width="2485"
     inkscape:window-height="1417"
     inkscape:window-x="-8"
     inkscape:window-y="-8"
     inkscape:window-maximized="1">
    <inkscape:grid
       type="xygrid"
       id="grid833"
       empcolor="#3c3e3d"
       empopacity="0.10588235" />
  </sodipodi:namedview>
  <metadata
     id="metadata5">
    <rdf:RDF>
      <cc:Work
         rdf:about="">
        <dc:format>image/svg+xml</dc:format>
        <dc:type
           rdf:resource="http://purl.org/dc/dcmitype/StillImage" />
        <dc:title></dc:title>
      </cc:Work>
    </rdf:RDF>
  </metadata>
  <g
     inkscape:label="Layer 1"
     inkscape:groupmode="layer"
     id="layer1"
     sodipodi:insensitive="true"
     style="display:inline">
    <rect
       style="fill:#f9f9f9;stroke:#d2d2d2;stroke-width:0.264583"
       id="rect835"
       width="211.66666"
       height="158.75"
       x="0"
       y="0" />
  </g>
  <g
     inkscape:groupmode="layer"
     id="layer2"
     inkscape:label="Layer 2">
    <g
       id="patch_1"
       transform="matrix(0.23728505,0,0,0.23728505,21.166666,10.583333)">
      <path
         d="M 0,576 H 720 V 0 H 0 Z"
         style="fill:#ffffff"
         id="path839" />
    </g>
    <g
       id="patch_2"
       transform="matrix(0.23728505,0,0,0.23728505,21.166666,10.583333)">
      <path
         d="M 90,504 H 648 V 69.12 H 90 Z"
         style="fill:#ffffff"
         id="path842" />
    </g>
    <g
       id="matplotlib.axis_1"
       transform="matrix(0.23728505,0,0,0.23728505,21.166666,10.583333)">
      <g
         id="xtick_1">
        <g
           id="text_1">
          <!-- 1 -->
          <g
             style="fill:#262626"
             transform="matrix(0.1,0,0,-0.1,115.11953,518.15781)"
             id="g850">
            <defs
               id="defs846">
              <path
                 d="m 37.25,0 h -8.78125 v 56 q -3.171875,-3.015625 -8.328125,-6.046875 -5.15625,-3.03125 -9.25,-4.546875 v 8.5 q 7.375,3.46875 12.890625,8.390625 5.515625,4.9375 7.8125,9.578125 H 37.25 Z"
                 id="path1513" />
            </defs>
            <use
               xlink:href="#ArialMT-49"
               id="use848"
               x="0"
               y="0"
               width="100%"
               height="100%" />
          </g>
        </g>
      </g>
      <g
         id="xtick_2">
        <g
           id="text_2">
          <!-- 2 -->
          <g
             style="fill:#262626"
             transform="matrix(0.1,0,0,-0.1,170.91953,518.15781)"
             id="g859">
            <defs
               id="defs855">
              <path
                 d="M 50.34375,8.453125 V 0 H 3.03125 Q 2.9375,3.171875 4.046875,6.109375 5.859375,10.9375 9.828125,15.625 13.8125,20.3125 21.34375,26.46875 q 11.671875,9.5625 15.765625,15.15625 4.109375,5.59375 4.109375,10.578125 0,5.21875 -3.75,8.796875 -3.734375,3.59375 -9.734375,3.59375 -6.34375,0 -10.15625,-3.8125 Q 13.765625,56.984375 13.71875,50.25 L 4.6875,51.171875 q 0.921875,10.109375 6.96875,15.40625 6.0625,5.296875 16.28125,5.296875 10.296875,0 16.296875,-5.71875 Q 50.25,60.453125 50.25,52 50.25,47.703125 48.484375,43.546875 46.734375,39.40625 42.65625,34.8125 38.578125,30.21875 29.109375,22.21875 21.1875,15.578125 18.9375,13.203125 q -2.234375,-2.359375 -3.703125,-4.75 z"
                 id="path1520" />
            </defs>
            <use
               xlink:href="#ArialMT-50"
               id="use857"
               x="0"
               y="0"
               width="100%"
               height="100%" />
          </g>
        </g>
      </g>
      <g
         id="xtick_3">
        <g
           id="text_3">
          <!-- 3 -->
          <g
             style="fill:#262626"
             transform="matrix(0.1,0,0,-0.1,226.71953,518.15781)"
             id="g868">
            <defs
               id="defs864">
              <path
                 d="m 4.203125,18.890625 8.78125,1.171875 Q 14.5,12.59375 18.140625,9.296875 21.78125,6 27,6 33.203125,6 37.46875,10.296875 41.75,14.59375 41.75,20.953125 q 0,6.046875 -3.953125,9.96875 -3.953125,3.9375 -10.0625,3.9375 -2.484375,0 -6.203125,-0.96875 l 0.984375,7.71875 Q 23.390625,41.5 23.921875,41.5 q 5.625,0 10.109375,2.921875 4.5,2.9375 4.5,9.046875 0,4.828125 -3.28125,8 -3.265625,3.1875 -8.4375,3.1875 -5.125,0 -8.546875,-3.234375 -3.421875,-3.21875 -4.390625,-9.65625 l -8.796875,1.5625 q 1.609375,8.828125 7.3125,13.6875 5.71875,4.859375 14.21875,4.859375 5.859375,0 10.78125,-2.515625 4.9375,-2.515625 7.546875,-6.859375 2.625,-4.34375 2.625,-9.234375 0,-4.625 -2.5,-8.4375 -2.484375,-3.8125 -7.359375,-6.0625 6.34375,-1.453125 9.859375,-6.078125 3.515625,-4.609375 3.515625,-11.546875 0,-9.375 -6.84375,-15.890625 -6.828125,-6.515625 -17.28125,-6.515625 -9.421875,0 -15.65625,5.609375 -6.21875,5.625 -7.09375,14.546875 z"
                 id="path1527" />
            </defs>
            <use
               xlink:href="#ArialMT-51"
               id="use866"
               x="0"
               y="0"
               width="100%"
               height="100%" />
          </g>
        </g>
      </g>
      <g
         id="xtick_4">
        <g
           id="text_4">
          <!-- 4 -->
          <g
             style="fill:#262626"
             transform="matrix(0.1,0,0,-0.1,282.51953,518.15781)"
             id="g877">
            <defs
               id="defs873">
              <path
                 d="m 32.328125,0 v 17.140625 h -31.0625 v 8.0625 l 32.671875,46.375 h 7.171875 v -46.375 h 9.671875 v -8.0625 H 41.109375 V 0 Z m 0,25.203125 V 57.46875 L 9.90625,25.203125 Z"
                 id="path1534" />
            </defs>
            <use
               xlink:href="#ArialMT-52"
               id="use875"
               x="0"
               y="0"
               width="100%"
               height="100%" />
          </g>
        </g>
      </g>
      <g
         id="xtick_5">
        <g
           id="text_5">
          <!-- 5 -->
          <g
             style="fill:#262626"
             transform="matrix(0.1,0,0,-0.1,338.31953,518.15781)"
             id="g886">
            <defs
               id="defs882">
              <path
                 d="M 4.15625,18.75 13.375,19.53125 Q 14.40625,12.796875 18.140625,9.390625 21.875,6 27.15625,6 33.5,6 37.890625,10.78125 42.28125,15.578125 42.28125,23.484375 42.28125,31 38.0625,35.34375 33.84375,39.703125 27,39.703125 q -4.25,0 -7.671875,-1.9375 -3.40625,-1.921875 -5.359375,-5 l -8.25,1.078125 6.921875,36.765625 H 48.25 v -8.40625 H 19.671875 L 15.828125,42.96875 q 6.4375,4.5 13.515625,4.5 9.375,0 15.8125,-6.5 6.453125,-6.5 6.453125,-16.703125 0,-9.71875 -5.65625,-16.796875 -6.890625,-8.6875 -18.796875,-8.6875 -9.765625,0 -15.953125,5.46875 Q 5.03125,9.71875 4.15625,18.75 Z"
                 id="path1541" />
            </defs>
            <use
               xlink:href="#ArialMT-53"
               id="use884"
               x="0"
               y="0"
               width="100%"
               height="100%" />
          </g>
        </g>
      </g>
      <g
         id="xtick_6">
        <g
           id="text_6">
          <!-- 6 -->
          <g
             style="fill:#262626"
             transform="matrix(0.1,0,0,-0.1,394.11953,518.15781)"
             id="g895">
            <defs
               id="defs891">
              <path
                 d="M 49.75,54.046875 41.015625,53.375 q -1.171875,5.171875 -3.3125,7.515625 -3.578125,3.765625 -8.796875,3.765625 -4.203125,0 -7.375,-2.34375 Q 17.390625,59.28125 14.984375,53.46875 12.59375,47.65625 12.5,36.921875 15.671875,41.75 20.265625,44.09375 q 4.59375,2.34375 9.625,2.34375 8.78125,0 14.953125,-6.46875 Q 51.03125,33.5 51.03125,23.25 51.03125,16.5 48.125,10.71875 45.21875,4.9375 40.140625,1.859375 35.0625,-1.21875 28.609375,-1.21875 17.625,-1.21875 10.6875,6.859375 3.765625,14.9375 3.765625,33.5 q 0,20.75 7.65625,30.171875 6.6875,8.203125 18.015625,8.203125 8.453125,0 13.84375,-4.734375 Q 48.6875,62.40625 49.75,54.046875 Z M 13.875,23.1875 q 0,-4.53125 1.921875,-8.6875 Q 17.71875,10.359375 21.1875,8.171875 24.65625,6 28.46875,6 q 5.5625,0 9.5625,4.484375 4.015625,4.5 4.015625,12.21875 0,7.421875 -3.96875,11.6875 -3.953125,4.28125 -9.953125,4.28125 -5.953125,0 -10.109375,-4.28125 Q 13.875,30.125 13.875,23.1875 Z"
                 id="path1548" />
            </defs>
            <use
               xlink:href="#ArialMT-54"
               id="use893"
               x="0"
               y="0"
               width="100%"
               height="100%" />
          </g>
        </g>
      </g>
      <g
         id="xtick_7">
        <g
           id="text_7">
          <!-- 7 -->
          <g
             style="fill:#262626"
             transform="matrix(0.1,0,0,-0.1,449.91953,518.15781)"
             id="g904">
            <defs
               id="defs900">
              <path
                 d="m 4.734375,62.203125 v 8.453125 h 46.34375 V 63.8125 Q 44.234375,56.546875 37.515625,44.484375 30.8125,32.421875 27.15625,19.671875 24.515625,10.6875 23.78125,0 H 14.75 q 0.140625,8.453125 3.3125,20.40625 3.171875,11.96875 9.109375,23.078125 5.9375,11.109375 12.625,18.71875 z"
                 id="path1555" />
            </defs>
            <use
               xlink:href="#ArialMT-55"
               id="use902"
               x="0"
               y="0"
               width="100%"
               height="100%" />
          </g>
        </g>
      </g>
      <g
         id="xtick_8">
        <g
           id="text_8">
          <!-- 8 -->
          <g
             style="fill:#262626"
             transform="matrix(0.1,0,0,-0.1,505.71953,518.15781)"
             id="g913">
            <defs
               id="defs909">
              <path
                 d="m 17.671875,38.8125 q -5.46875,2.015625 -8.109375,5.71875 -2.625,3.71875 -2.625,8.890625 0,7.8125 5.609375,13.125 5.625,5.328125 14.9375,5.328125 9.375,0 15.09375,-5.453125 5.71875,-5.4375 5.71875,-13.25 0,-4.984375 -2.625,-8.671875 Q 43.0625,40.828125 37.75,38.8125 q 6.59375,-2.140625 10.03125,-6.9375 3.4375,-4.78125 3.4375,-11.421875 0,-9.171875 -6.5,-15.421875 -6.484375,-6.25 -17.078125,-6.25 -10.59375,0 -17.09375,6.265625 -6.5,6.28125 -6.5,15.65625 0,6.984375 3.546875,11.6875 3.546875,4.71875 10.078125,6.421875 z m -1.75,14.90625 q 0,-5.078125 3.265625,-8.3125 3.28125,-3.21875 8.5,-3.21875 5.078125,0 8.328125,3.1875 3.25,3.203125 3.25,7.84375 0,4.84375 -3.359375,8.140625 -3.34375,3.296875 -8.3125,3.296875 -5.03125,0 -8.359375,-3.234375 -3.3125,-3.21875 -3.3125,-7.703125 z M 13.09375,20.65625 q 0,-3.765625 1.78125,-7.28125 Q 16.65625,9.859375 20.171875,7.921875 23.6875,6 27.734375,6 34.03125,6 38.125,10.046875 q 4.109375,4.0625 4.109375,10.3125 0,6.34375 -4.21875,10.5 -4.21875,4.15625 -10.578125,4.15625 -6.203125,0 -10.28125,-4.109375 -4.0625,-4.09375 -4.0625,-10.25 z"
                 id="path1562" />
            </defs>
            <use
               xlink:href="#ArialMT-56"
               id="use911"
               x="0"
               y="0"
               width="100%"
               height="100%" />
          </g>
        </g>
      </g>
      <g
         id="xtick_9">
        <g
           id="text_9">
          <!-- 9 -->
          <g
             style="fill:#262626"
             transform="matrix(0.1,0,0,-0.1,561.51953,518.15781)"
             id="g922">
            <defs
               id="defs918">
              <path
                 d="m 5.46875,16.546875 8.453125,0.78125 Q 14.984375,11.375 18.015625,8.6875 21.046875,6 25.78125,6 q 4.046875,0 7.09375,1.859375 3.0625,1.859375 5.015625,4.953125 1.953125,3.109375 3.265625,8.375 1.328125,5.28125 1.328125,10.75 0,0.578125 -0.04687,1.75 Q 39.79688,29.5 35.23438,26.875 q -4.5625,-2.609375 -9.890625,-2.609375 -8.890625,0 -15.046875,6.4375 -6.140625,6.453125 -6.140625,17 0,10.890625 6.421875,17.53125 Q 17,71.875 26.65625,71.875 q 6.984375,0 12.765625,-3.765625 5.796875,-3.75 8.796875,-10.71875 3,-6.953125 3,-20.140625 0,-13.71875 -2.984375,-21.84375 -2.96875,-8.125 -8.859375,-12.375 -5.875,-4.25 -13.78125,-4.25 -8.40625,0 -13.734375,4.65625 -5.3125,4.671875 -6.390625,13.109375 z m 35.984375,31.59375 q 0,7.578125 -4.03125,12.015625 -4.015625,4.4375 -9.6875,4.4375 -5.859375,0 -10.203125,-4.78125 -4.34375,-4.78125 -4.34375,-12.40625 0,-6.828125 4.125,-11.109375 4.125,-4.265625 10.171875,-4.265625 6.109375,0 10.03125,4.265625 3.9375,4.28125 3.9375,11.84375 z"
                 id="path1569" />
            </defs>
            <use
               xlink:href="#ArialMT-57"
               id="use920"
               x="0"
               y="0"
               width="100%"
               height="100%" />
          </g>
        </g>
      </g>
      <g
         id="xtick_10">
        <g
           id="text_10">
          <!-- 10 -->
          <g
             style="fill:#262626"
             transform="matrix(0.1,0,0,-0.1,614.53906,518.15781)"
             id="g933">
            <defs
               id="defs927">
              <path
                 d="m 4.15625,35.296875 q 0,12.703125 2.609375,20.4375 2.609375,7.75 7.75,11.9375 5.15625,4.203125 12.96875,4.203125 5.765625,0 10.109375,-2.328125 4.34375,-2.3125 7.171875,-6.6875 Q 47.609375,58.5 49.21875,52.21875 q 1.609375,-6.265625 1.609375,-16.921875 0,-12.59375 -2.59375,-20.328125 Q 45.65625,7.234375 40.5,3 35.359375,-1.21875 27.484375,-1.21875 q -10.34375,0 -16.25,7.421875 -7.078125,8.9375 -7.078125,29.09375 z m 9.03125,0 q 0,-17.625 4.125,-23.46875 Q 21.4375,6 27.484375,6 q 6.0625,0 10.1875,5.859375 4.125,5.859375 4.125,23.4375 0,17.6875 -4.125,23.484375 -4.125,5.8125 -10.28125,5.8125 -6.046875,0 -9.671875,-5.125 Q 13.1875,52.9375 13.1875,35.296875 Z"
                 id="path1576" />
            </defs>
            <use
               xlink:href="#ArialMT-49"
               id="use929"
               x="0"
               y="0"
               width="100%"
               height="100%" />
            <use
               x="55.615234"
               xlink:href="#ArialMT-48"
               id="use931"
               y="0"
               width="100%"
               height="100%" />
          </g>
        </g>
      </g>
      <g
         id="text_11">
        <!-- OverallQual -->
        <g
           style="fill:#262626"
           transform="matrix(0.1,0,0,-0.1,342.60234,531.30313)"
           id="g969">
          <defs
             id="defs945">
            <path
               d="m 4.828125,34.859375 q 0,17.828125 9.5625,27.90625 9.578125,10.09375 24.71875,10.09375 9.921875,0 17.875,-4.75 7.953125,-4.734375 12.125,-13.203125 4.1875,-8.46875 4.1875,-19.21875 0,-10.875 -4.40625,-19.46875 Q 64.5,7.625 56.4375,3.203125 48.390625,-1.21875 39.0625,-1.21875 q -10.109375,0 -18.078125,4.875 -7.953125,4.890625 -12.0625,13.328125 -4.09375,8.453125 -4.09375,17.875 z M 14.59375,34.71875 q 0,-12.9375 6.953125,-20.390625 6.96875,-7.4375 17.46875,-7.4375 10.6875,0 17.59375,7.515625 6.921875,7.515625 6.921875,21.34375 0,8.734375 -2.953125,15.25 -2.953125,6.515625 -8.65625,10.109375 -5.6875,3.59375 -12.765625,3.59375 -10.046875,0 -17.3125,-6.921875 -7.25,-6.90625 -7.25,-23.0625 z"
               id="path1584" />
            <path
               d="M 21,0 1.265625,51.859375 h 9.28125 L 21.6875,20.796875 q 1.796875,-5.03125 3.3125,-10.4375 1.171875,4.09375 3.265625,9.859375 l 11.53125,31.640625 h 9.03125 L 29.203125,0 Z"
               id="path1586" />
            <path
               d="m 42.09375,16.703125 9.078125,-1.125 Q 49.03125,7.625 43.21875,3.21875 37.40625,-1.171875 28.375,-1.171875 q -11.375,0 -18.046875,7 -6.671875,7.015625 -6.671875,19.65625 0,13.09375 6.734375,20.3125 6.75,7.234375 17.484375,7.234375 10.40625,0 17,-7.078125 6.59375,-7.078125 6.59375,-19.921875 0,-0.78125 -0.04687,-2.34375 H 12.75 q 0.484375,-8.546875 4.828125,-13.09375 4.34375,-4.53125 10.84375,-4.53125 4.828125,0 8.25,2.53125 3.421875,2.546875 5.421875,8.109375 z M 13.234375,30.90625 H 42.1875 q -0.578125,6.546875 -3.3125,9.8125 -4.203125,5.078125 -10.890625,5.078125 -6.0625,0 -10.1875,-4.046875 -4.125,-4.046875 -4.5625,-10.84375 z"
               id="path1588" />
            <path
               d="m 6.5,0 v 51.859375 h 7.90625 V 44 Q 17.4375,49.515625 20,51.265625 q 2.5625,1.765625 5.640625,1.765625 4.4375,0 9.03125,-2.828125 l -3.03125,-8.15625 q -3.21875,1.90625 -6.4375,1.90625 -2.890625,0 -5.1875,-1.734375 -2.296875,-1.734375 -3.265625,-4.8125 -1.46875,-4.6875 -1.46875,-10.25 V 0 Z"
               id="path1590" />
            <path
               d="M 40.4375,6.390625 Q 35.546875,2.25 31.03125,0.53125 q -4.515625,-1.703125 -9.6875,-1.703125 -8.546875,0 -13.140625,4.171875 -4.59375,4.171875 -4.59375,10.671875 0,3.8125 1.734375,6.953125 1.734375,3.15625 4.546875,5.0625 2.8125,1.90625 6.328125,2.875 2.578125,0.6875 7.8125,1.328125 10.640625,1.265625 15.671875,3.015625 0.04687,1.8125 0.04687,2.296875 0,5.375 -2.5,7.578125 -3.359375,2.96875 -10,2.96875 -6.203125,0 -9.15625,-2.171875 -2.953125,-2.171875 -4.375,-7.6875 L 5.125,37.0625 q 1.171875,5.515625 3.859375,8.90625 2.6875,3.390625 7.765625,5.21875 5.078125,1.84375 11.765625,1.84375 6.640625,0 10.78125,-1.5625 4.15625,-1.5625 6.109375,-3.9375 1.953125,-2.359375 2.734375,-5.984375 0.4375,-2.234375 0.4375,-8.09375 v -11.71875 q 0,-12.265625 0.5625,-15.515625 Q 49.703125,2.984375 51.375,0 h -9.1875 q -1.359375,2.734375 -1.75,6.390625 z M 39.703125,26.03125 Q 34.90625,24.078125 25.34375,22.703125 19.921875,21.921875 17.671875,20.9375 15.4375,19.96875 14.203125,18.09375 q -1.21875,-1.875 -1.21875,-4.171875 0,-3.515625 2.65625,-5.859375 2.671875,-2.34375 7.796875,-2.34375 5.078125,0 9.03125,2.21875 3.953125,2.21875 5.8125,6.078125 1.421875,2.984375 1.421875,8.78125 z"
               id="path1592" />
            <path
               d="M 6.390625,0 V 71.578125 H 15.1875 V 0 Z"
               id="path1594" />
            <path
               d="M 61.96875,7.671875 Q 68.5625,3.125 74.125,1.03125 L 71.34375,-5.5625 Q 63.625,-2.78125 55.953125,3.21875 48,-1.21875 38.375,-1.21875 q -9.71875,0 -17.625,4.6875 -7.90625,4.6875 -12.1875,13.171875 -4.265625,8.5 -4.265625,19.15625 0,10.59375 4.296875,19.28125 4.296875,8.6875 12.234375,13.234375 7.9375,4.546875 17.75,4.546875 9.90625,0 17.859375,-4.71875 7.96875,-4.71875 12.140625,-13.1875 Q 72.75,46.484375 72.75,35.84375 72.75,27 70.0625,19.9375 67.390625,12.890625 61.96875,7.671875 Z M 41.109375,19.78125 q 8.203125,-2.296875 13.53125,-6.84375 8.34375,7.625 8.34375,22.90625 0,8.6875 -2.953125,15.171875 -2.953125,6.5 -8.640625,10.09375 -5.6875,3.59375 -12.765625,3.59375 -10.59375,0 -17.578125,-7.25 -6.984375,-7.25 -6.984375,-21.65625 0,-13.96875 6.90625,-21.4375 6.90625,-7.46875 17.65625,-7.46875 5.078125,0 9.5625,1.90625 -4.4375,2.875 -9.375,4.09375 z"
               id="path1596" />
            <path
               d="m 40.578125,0 v 7.625 q -6.0625,-8.796875 -16.453125,-8.796875 -4.59375,0 -8.578125,1.75 Q 11.578125,2.34375 9.640625,5 7.71875,7.671875 6.9375,11.53125 6.390625,14.109375 6.390625,19.734375 v 32.125 H 15.1875 V 23.09375 q 0,-6.875 0.53125,-9.28125 0.828125,-3.453125 3.515625,-5.4375 2.6875,-1.984375 6.640625,-1.984375 3.953125,0 7.421875,2.03125 3.46875,2.03125 4.90625,5.515625 1.453125,3.5 1.453125,10.140625 v 27.78125 H 48.4375 V 0 Z"
               id="path1598" />
          </defs>
          <use
             xlink:href="#ArialMT-79"
             id="use947"
             x="0"
             y="0"
             width="100%"
             height="100%" />
          <use
             x="77.783203"
             xlink:href="#ArialMT-118"
             id="use949"
             y="0"
             width="100%"
             height="100%" />
          <use
             x="127.7832"
             xlink:href="#ArialMT-101"
             id="use951"
             y="0"
             width="100%"
             height="100%" />
          <use
             x="183.39844"
             xlink:href="#ArialMT-114"
             id="use953"
             y="0"
             width="100%"
             height="100%" />
          <use
             x="216.69922"
             xlink:href="#ArialMT-97"
             id="use955"
             y="0"
             width="100%"
             height="100%" />
          <use
             x="272.31445"
             xlink:href="#ArialMT-108"
             id="use957"
             y="0"
             width="100%"
             height="100%" />
          <use
             x="294.53125"
             xlink:href="#ArialMT-108"
             id="use959"
             y="0"
             width="100%"
             height="100%" />
          <use
             x="316.74805"
             xlink:href="#ArialMT-81"
             id="use961"
             y="0"
             width="100%"
             height="100%" />
          <use
             x="394.53125"
             xlink:href="#ArialMT-117"
             id="use963"
             y="0"
             width="100%"
             height="100%" />
          <use
             x="450.14648"
             xlink:href="#ArialMT-97"
             id="use965"
             y="0"
             width="100%"
             height="100%" />
          <use
             x="505.76172"
             xlink:href="#ArialMT-108"
             id="use967"
             y="0"
             width="100%"
             height="100%" />
        </g>
      </g>
    </g>
    <g
       id="matplotlib.axis_2"
       transform="matrix(0.23728505,0,0,0.23728505,21.166666,10.583333)">
      <g
         id="ytick_1">
        <g
           id="line2d_1">
          <path
             clip-path="url(#p3d4fa7853e)"
             d="M 90,503.39334 H 648"
             style="fill:none;stroke:#cccccc;stroke-width:0.8;stroke-linecap:round"
             id="path973" />
        </g>
        <g
           id="text_12">
          <!-- 0 -->
          <g
             style="fill:#262626"
             transform="matrix(0.1,0,0,-0.1,77.439063,506.97224)"
             id="g978">
            <use
               xlink:href="#ArialMT-48"
               id="use976"
               x="0"
               y="0"
               width="100%"
               height="100%" />
          </g>
        </g>
      </g>
      <g
         id="ytick_2">
        <g
           id="line2d_2">
          <path
             clip-path="url(#p3d4fa7853e)"
             d="M 90,448.49187 H 648"
             style="fill:none;stroke:#cccccc;stroke-width:0.8;stroke-linecap:round"
             id="path982" />
        </g>
        <g
           id="text_13">
          <!-- 100000 -->
          <g
             style="fill:#262626"
             transform="matrix(0.1,0,0,-0.1,49.634375,452.07078)"
             id="g997">
            <use
               xlink:href="#ArialMT-49"
               id="use985"
               x="0"
               y="0"
               width="100%"
               height="100%" />
            <use
               x="55.615234"
               xlink:href="#ArialMT-48"
               id="use987"
               y="0"
               width="100%"
               height="100%" />
            <use
               x="111.23047"
               xlink:href="#ArialMT-48"
               id="use989"
               y="0"
               width="100%"
               height="100%" />
            <use
               x="166.8457"
               xlink:href="#ArialMT-48"
               id="use991"
               y="0"
               width="100%"
               height="100%" />
            <use
               x="222.46094"
               xlink:href="#ArialMT-48"
               id="use993"
               y="0"
               width="100%"
               height="100%" />
            <use
               x="278.07617"
               xlink:href="#ArialMT-48"
               id="use995"
               y="0"
               width="100%"
               height="100%" />
          </g>
        </g>
      </g>
      <g
         id="ytick_3">
        <g
           id="line2d_3">
          <path
             clip-path="url(#p3d4fa7853e)"
             d="M 90,393.59041 H 648"
             style="fill:none;stroke:#cccccc;stroke-width:0.8;stroke-linecap:round"
             id="path1001" />
        </g>
        <g
           id="text_14">
          <!-- 200000 -->
          <g
             style="fill:#262626"
             transform="matrix(0.1,0,0,-0.1,49.634375,397.16931)"
             id="g1016">
            <use
               xlink:href="#ArialMT-50"
               id="use1004"
               x="0"
               y="0"
               width="100%"
               height="100%" />
            <use
               x="55.615234"
               xlink:href="#ArialMT-48"
               id="use1006"
               y="0"
               width="100%"
               height="100%" />
            <use
               x="111.23047"
               xlink:href="#ArialMT-48"
               id="use1008"
               y="0"
               width="100%"
               height="100%" />
            <use
               x="166.8457"
               xlink:href="#ArialMT-48"
               id="use1010"
               y="0"
               width="100%"
               height="100%" />
            <use
               x="222.46094"
               xlink:href="#ArialMT-48"
               id="use1012"
               y="0"
               width="100%"
               height="100%" />
            <use
               x="278.07617"
               xlink:href="#ArialMT-48"
               id="use1014"
               y="0"
               width="100%"
               height="100%" />
          </g>
        </g>
      </g>
      <g
         id="ytick_4">
        <g
           id="line2d_4">
          <path
             clip-path="url(#p3d4fa7853e)"
             d="M 90,338.68894 H 648"
             style="fill:none;stroke:#cccccc;stroke-width:0.8;stroke-linecap:round"
             id="path1020" />
        </g>
        <g
           id="text_15">
          <!-- 300000 -->
          <g
             style="fill:#262626"
             transform="matrix(0.1,0,0,-0.1,49.634375,342.26785)"
             id="g1035">
            <use
               xlink:href="#ArialMT-51"
               id="use1023"
               x="0"
               y="0"
               width="100%"
               height="100%" />
            <use
               x="55.615234"
               xlink:href="#ArialMT-48"
               id="use1025"
               y="0"
               width="100%"
               height="100%" />
            <use
               x="111.23047"
               xlink:href="#ArialMT-48"
               id="use1027"
               y="0"
               width="100%"
               height="100%" />
            <use
               x="166.8457"
               xlink:href="#ArialMT-48"
               id="use1029"
               y="0"
               width="100%"
               height="100%" />
            <use
               x="222.46094"
               xlink:href="#ArialMT-48"
               id="use1031"
               y="0"
               width="100%"
               height="100%" />
            <use
               x="278.07617"
               xlink:href="#ArialMT-48"
               id="use1033"
               y="0"
               width="100%"
               height="100%" />
          </g>
        </g>
      </g>
      <g
         id="ytick_5">
        <g
           id="line2d_5">
          <path
             clip-path="url(#p3d4fa7853e)"
             d="M 90,283.78748 H 648"
             style="fill:none;stroke:#cccccc;stroke-width:0.8;stroke-linecap:round"
             id="path1039" />
        </g>
        <g
           id="text_16">
          <!-- 400000 -->
          <g
             style="fill:#262626"
             transform="matrix(0.1,0,0,-0.1,49.634375,287.36638)"
             id="g1054">
            <use
               xlink:href="#ArialMT-52"
               id="use1042"
               x="0"
               y="0"
               width="100%"
               height="100%" />
            <use
               x="55.615234"
               xlink:href="#ArialMT-48"
               id="use1044"
               y="0"
               width="100%"
               height="100%" />
            <use
               x="111.23047"
               xlink:href="#ArialMT-48"
               id="use1046"
               y="0"
               width="100%"
               height="100%" />
            <use
               x="166.8457"
               xlink:href="#ArialMT-48"
               id="use1048"
               y="0"
               width="100%"
               height="100%" />
            <use
               x="222.46094"
               xlink:href="#ArialMT-48"
               id="use1050"
               y="0"
               width="100%"
               height="100%" />
            <use
               x="278.07617"
               xlink:href="#ArialMT-48"
               id="use1052"
               y="0"
               width="100%"
               height="100%" />
          </g>
        </g>
      </g>
      <g
         id="ytick_6">
        <g
           id="line2d_6">
          <path
             clip-path="url(#p3d4fa7853e)"
             d="M 90,228.88601 H 648"
             style="fill:none;stroke:#cccccc;stroke-width:0.8;stroke-linecap:round"
             id="path1058" />
        </g>
        <g
           id="text_17">
          <!-- 500000 -->
          <g
             style="fill:#262626"
             transform="matrix(0.1,0,0,-0.1,49.634375,232.46492)"
             id="g1073">
            <use
               xlink:href="#ArialMT-53"
               id="use1061"
               x="0"
               y="0"
               width="100%"
               height="100%" />
            <use
               x="55.615234"
               xlink:href="#ArialMT-48"
               id="use1063"
               y="0"
               width="100%"
               height="100%" />
            <use
               x="111.23047"
               xlink:href="#ArialMT-48"
               id="use1065"
               y="0"
               width="100%"
               height="100%" />
            <use
               x="166.8457"
               xlink:href="#ArialMT-48"
               id="use1067"
               y="0"
               width="100%"
               height="100%" />
            <use
               x="222.46094"
               xlink:href="#ArialMT-48"
               id="use1069"
               y="0"
               width="100%"
               height="100%" />
            <use
               x="278.07617"
               xlink:href="#ArialMT-48"
               id="use1071"
               y="0"
               width="100%"
               height="100%" />
          </g>
        </g>
      </g>
      <g
         id="ytick_7">
        <g
           id="line2d_7">
          <path
             clip-path="url(#p3d4fa7853e)"
             d="M 90,173.98454 H 648"
             style="fill:none;stroke:#cccccc;stroke-width:0.8;stroke-linecap:round"
             id="path1077" />
        </g>
        <g
           id="text_18">
          <!-- 600000 -->
          <g
             style="fill:#262626"
             transform="matrix(0.1,0,0,-0.1,49.634375,177.56345)"
             id="g1092">
            <use
               xlink:href="#ArialMT-54"
               id="use1080"
               x="0"
               y="0"
               width="100%"
               height="100%" />
            <use
               x="55.615234"
               xlink:href="#ArialMT-48"
               id="use1082"
               y="0"
               width="100%"
               height="100%" />
            <use
               x="111.23047"
               xlink:href="#ArialMT-48"
               id="use1084"
               y="0"
               width="100%"
               height="100%" />
            <use
               x="166.8457"
               xlink:href="#ArialMT-48"
               id="use1086"
               y="0"
               width="100%"
               height="100%" />
            <use
               x="222.46094"
               xlink:href="#ArialMT-48"
               id="use1088"
               y="0"
               width="100%"
               height="100%" />
            <use
               x="278.07617"
               xlink:href="#ArialMT-48"
               id="use1090"
               y="0"
               width="100%"
               height="100%" />
          </g>
        </g>
      </g>
      <g
         id="ytick_8">
        <g
           id="line2d_8">
          <path
             clip-path="url(#p3d4fa7853e)"
             d="M 90,119.08308 H 648"
             style="fill:none;stroke:#cccccc;stroke-width:0.8;stroke-linecap:round"
             id="path1096" />
        </g>
        <g
           id="text_19">
          <!-- 700000 -->
          <g
             style="fill:#262626"
             transform="matrix(0.1,0,0,-0.1,49.634375,122.66199)"
             id="g1111">
            <use
               xlink:href="#ArialMT-55"
               id="use1099"
               x="0"
               y="0"
               width="100%"
               height="100%" />
            <use
               x="55.615234"
               xlink:href="#ArialMT-48"
               id="use1101"
               y="0"
               width="100%"
               height="100%" />
            <use
               x="111.23047"
               xlink:href="#ArialMT-48"
               id="use1103"
               y="0"
               width="100%"
               height="100%" />
            <use
               x="166.8457"
               xlink:href="#ArialMT-48"
               id="use1105"
               y="0"
               width="100%"
               height="100%" />
            <use
               x="222.46094"
               xlink:href="#ArialMT-48"
               id="use1107"
               y="0"
               width="100%"
               height="100%" />
            <use
               x="278.07617"
               xlink:href="#ArialMT-48"
               id="use1109"
               y="0"
               width="100%"
               height="100%" />
          </g>
        </g>
      </g>
      <g
         id="text_20">
        <!-- SalePrice -->
        <g
           style="fill:#262626"
           transform="matrix(0,-0.1,-0.1,0,43.646875,307.95844)"
           id="g1139">
          <defs
             id="defs1119">
            <path
               d="m 4.5,23 8.921875,0.78125 q 0.640625,-5.375 2.953125,-8.8125 2.328125,-3.4375 7.203125,-5.5625 4.890625,-2.125 11,-2.125 5.40625,0 9.5625,1.609375 4.15625,1.609375 6.171875,4.40625 2.03125,2.8125 2.03125,6.140625 0,3.359375 -1.953125,5.875 -1.953125,2.515625 -6.4375,4.234375 -2.890625,1.125 -12.75,3.484375 -9.859375,2.375 -13.8125,4.46875 -5.140625,2.6875 -7.65625,6.65625 -2.5,3.984375 -2.5,8.921875 0,5.421875 3.0625,10.125 3.078125,4.71875 8.984375,7.15625 5.921875,2.4375 13.140625,2.4375 7.953125,0 14.03125,-2.5625 6.09375,-2.5625 9.359375,-7.546875 3.265625,-4.96875 3.515625,-11.265625 L 50.25,50.734375 q -0.734375,6.78125 -4.96875,10.25 -4.21875,3.46875 -12.46875,3.46875 -8.59375,0 -12.53125,-3.15625 -3.921875,-3.140625 -3.921875,-7.578125 0,-3.859375 2.78125,-6.359375 2.734375,-2.484375 14.28125,-5.09375 11.546875,-2.609375 15.84375,-4.5625 6.25,-2.890625 9.21875,-7.3125 2.984375,-4.40625 2.984375,-10.171875 0,-5.71875 -3.265625,-10.78125 -3.265625,-5.046875 -9.40625,-7.859375 -6.125,-2.796875 -13.78125,-2.796875 -9.71875,0 -16.296875,2.828125 Q 12.15625,4.4375 8.421875,10.125 4.6875,15.828125 4.5,23 Z"
               id="path1698" />
            <path
               d="m 7.71875,0 v 71.578125 h 27 q 7.125,0 10.890625,-0.671875 5.265625,-0.890625 8.828125,-3.359375 3.578125,-2.453125 5.75,-6.90625 2.171875,-4.4375 2.171875,-9.765625 0,-9.125 -5.8125,-15.453125 -5.8125,-6.3125 -21,-6.3125 H 17.1875 V 0 Z m 9.46875,37.546875 h 18.5 q 9.1875,0 13.046875,3.421875 3.859375,3.421875 3.859375,9.625 0,4.484375 -2.28125,7.671875 Q 48.046875,61.46875 44.34375,62.5 41.9375,63.140625 35.5,63.140625 H 17.1875 Z"
               id="path1700" />
            <path
               d="M 6.640625,61.46875 V 71.578125 H 15.4375 V 61.46875 Z M 6.640625,0 V 51.859375 H 15.4375 V 0 Z"
               id="path1702" />
            <path
               d="m 40.4375,19 8.640625,-1.125 Q 47.65625,8.9375 41.8125,3.875 35.984375,-1.171875 27.484375,-1.171875 16.84375,-1.171875 10.375,5.78125 3.90625,12.75 3.90625,25.734375 q 0,8.390625 2.78125,14.6875 2.78125,6.3125 8.46875,9.453125 5.6875,3.15625 12.390625,3.15625 8.4375,0 13.8125,-4.28125 5.375,-4.265625 6.890625,-12.125 l -8.546875,-1.328125 q -1.21875,5.234375 -4.328125,7.859375 -3.09375,2.640625 -7.5,2.640625 -6.640625,0 -10.796875,-4.765625 -4.140625,-4.75 -4.140625,-15.046875 0,-10.453125 4,-15.1875 Q 20.953125,6.0625 27.390625,6.0625 32.5625,6.0625 36.03125,9.234375 39.5,12.40625 40.4375,19 Z"
               id="path1704" />
          </defs>
          <use
             xlink:href="#ArialMT-83"
             id="use1121"
             x="0"
             y="0"
             width="100%"
             height="100%" />
          <use
             x="66.699219"
             xlink:href="#ArialMT-97"
             id="use1123"
             y="0"
             width="100%"
             height="100%" />
          <use
             x="122.31445"
             xlink:href="#ArialMT-108"
             id="use1125"
             y="0"
             width="100%"
             height="100%" />
          <use
             x="144.53125"
             xlink:href="#ArialMT-101"
             id="use1127"
             y="0"
             width="100%"
             height="100%" />
          <use
             x="200.14648"
             xlink:href="#ArialMT-80"
             id="use1129"
             y="0"
             width="100%"
             height="100%" />
          <use
             x="266.8457"
             xlink:href="#ArialMT-114"
             id="use1131"
             y="0"
             width="100%"
             height="100%" />
          <use
             x="300.14648"
             xlink:href="#ArialMT-105"
             id="use1133"
             y="0"
             width="100%"
             height="100%" />
          <use
             x="322.36328"
             xlink:href="#ArialMT-99"
             id="use1135"
             y="0"
             width="100%"
             height="100%" />
          <use
             x="372.36328"
             xlink:href="#ArialMT-101"
             id="use1137"
             y="0"
             width="100%"
             height="100%" />
        </g>
      </g>
    </g>
    <g
       id="patch_3"
       transform="matrix(0.23728505,0,0,0.23728505,21.166666,10.583333)">
      <path
         clip-path="url(#p3d4fa7853e)"
         d="m 95.58,478.83866 h 44.64 v -5.95681 H 95.58 Z"
         style="fill:#5481a6;stroke:#4b4b4b;stroke-width:1.5;stroke-linejoin:miter"
         id="path1143" />
    </g>
    <g
       id="patch_4"
       transform="matrix(0.23728505,0,0,0.23728505,21.166666,10.583333)">
      <path
         clip-path="url(#p3d4fa7853e)"
         d="m 151.38,477.22977 h 44.64 v -6.77731 h -44.64 z"
         style="fill:#5481a6;stroke:#4b4b4b;stroke-width:1.5;stroke-linejoin:miter"
         id="path1146" />
    </g>
    <g
       id="patch_5"
       transform="matrix(0.23728505,0,0,0.23728505,21.166666,10.583333)">
      <path
         clip-path="url(#p3d4fa7853e)"
         d="m 207.18,461.94273 h 44.64 v -12.07832 h -44.64 z"
         style="fill:#5481a6;stroke:#4b4b4b;stroke-width:1.5;stroke-linejoin:miter"
         id="path1149" />
    </g>
    <g
       id="patch_6"
       transform="matrix(0.23728505,0,0,0.23728505,21.166666,10.583333)">
      <path
         clip-path="url(#p3d4fa7853e)"
         d="m 262.98,455.08005 h 44.64 V 434.492 h -44.64 z"
         style="fill:#5481a6;stroke:#4b4b4b;stroke-width:1.5;stroke-linejoin:miter"
         id="path1152" />
    </g>
    <g
       id="patch_7"
       transform="matrix(0.23728505,0,0,0.23728505,21.166666,10.583333)">
      <path
         clip-path="url(#p3d4fa7853e)"
         d="m 318.78,438.60961 h 44.64 v -15.92143 h -44.64 z"
         style="fill:#5481a6;stroke:#4b4b4b;stroke-width:1.5;stroke-linejoin:miter"
         id="path1155" />
    </g>
    <g
       id="patch_8"
       transform="matrix(0.23728505,0,0,0.23728505,21.166666,10.583333)">
      <path
         clip-path="url(#p3d4fa7853e)"
         d="m 374.58,427.01168 h 44.64 v -22.98999 h -44.64 z"
         style="fill:#5481a6;stroke:#4b4b4b;stroke-width:1.5;stroke-linejoin:miter"
         id="path1158" />
    </g>
    <g
       id="patch_9"
       transform="matrix(0.23728505,0,0,0.23728505,21.166666,10.583333)">
      <path
         clip-path="url(#p3d4fa7853e)"
         d="m 430.38,404.86168 h 44.64 v -28.15347 h -44.64 z"
         style="fill:#5481a6;stroke:#4b4b4b;stroke-width:1.5;stroke-linejoin:miter"
         id="path1161" />
    </g>
    <g
       id="patch_10"
       transform="matrix(0.23728505,0,0,0.23728505,21.166666,10.583333)">
      <path
         clip-path="url(#p3d4fa7853e)"
         d="m 486.18,374.61783 h 44.64 V 335.2576 h -44.64 z"
         style="fill:#5481a6;stroke:#4b4b4b;stroke-width:1.5;stroke-linejoin:miter"
         id="path1164" />
    </g>
    <g
       id="patch_11"
       transform="matrix(0.23728505,0,0,0.23728505,21.166666,10.583333)">
      <path
         clip-path="url(#p3d4fa7853e)"
         d="m 541.98,328.26837 h 44.64 v -38.83483 h -44.64 z"
         style="fill:#5481a6;stroke:#4b4b4b;stroke-width:1.5;stroke-linejoin:miter"
         id="path1167" />
    </g>
    <g
       id="patch_12"
       transform="matrix(0.23728505,0,0,0.23728505,21.166666,10.583333)">
      <path
         clip-path="url(#p3d4fa7853e)"
         d="m 597.78,311.58134 h 44.64 v -67.80331 h -44.64 z"
         style="fill:#5481a6;stroke:#4b4b4b;stroke-width:1.5;stroke-linejoin:miter"
         id="path1170" />
    </g>
    <g
       id="line2d_9"
       transform="matrix(0.23728505,0,0,0.23728505,21.166666,10.583333)">
      <path
         clip-path="url(#p3d4fa7853e)"
         d="m 117.9,478.83866 v 2.9784"
         style="fill:none;stroke:#4b4b4b;stroke-width:1.5;stroke-linecap:round"
         id="path1173" />
    </g>
    <g
       id="line2d_10"
       transform="matrix(0.23728505,0,0,0.23728505,21.166666,10.583333)">
      <path
         clip-path="url(#p3d4fa7853e)"
         d="m 117.9,472.88185 v -2.97841"
         style="fill:none;stroke:#4b4b4b;stroke-width:1.5;stroke-linecap:round"
         id="path1176" />
    </g>
    <g
       id="line2d_11"
       transform="matrix(0.23728505,0,0,0.23728505,21.166666,10.583333)">
      <path
         clip-path="url(#p3d4fa7853e)"
         d="m 106.74,481.81706 h 22.32"
         style="fill:none;stroke:#4b4b4b;stroke-width:1.5;stroke-linecap:round"
         id="path1179" />
    </g>
    <g
       id="line2d_12"
       transform="matrix(0.23728505,0,0,0.23728505,21.166666,10.583333)">
      <path
         clip-path="url(#p3d4fa7853e)"
         d="m 106.74,469.90344 h 22.32"
         style="fill:none;stroke:#4b4b4b;stroke-width:1.5;stroke-linecap:round"
         id="path1182" />
    </g>
    <g
       id="line2d_13"
       transform="matrix(0.23728505,0,0,0.23728505,21.166666,10.583333)" />
    <g
       id="line2d_14"
       transform="matrix(0.23728505,0,0,0.23728505,21.166666,10.583333)">
      <path
         clip-path="url(#p3d4fa7853e)"
         d="m 173.7,477.22977 v 6.77731"
         style="fill:none;stroke:#4b4b4b;stroke-width:1.5;stroke-linecap:round"
         id="path1186" />
    </g>
    <g
       id="line2d_15"
       transform="matrix(0.23728505,0,0,0.23728505,21.166666,10.583333)">
      <path
         clip-path="url(#p3d4fa7853e)"
         d="m 173.7,470.45246 v 0"
         style="fill:none;stroke:#4b4b4b;stroke-width:1.5;stroke-linecap:round"
         id="path1189" />
    </g>
    <g
       id="line2d_16"
       transform="matrix(0.23728505,0,0,0.23728505,21.166666,10.583333)">
      <path
         clip-path="url(#p3d4fa7853e)"
         d="m 162.54,484.00708 h 22.32"
         style="fill:none;stroke:#4b4b4b;stroke-width:1.5;stroke-linecap:round"
         id="path1192" />
    </g>
    <g
       id="line2d_17"
       transform="matrix(0.23728505,0,0,0.23728505,21.166666,10.583333)">
      <path
         clip-path="url(#p3d4fa7853e)"
         d="m 162.54,470.45246 h 22.32"
         style="fill:none;stroke:#4b4b4b;stroke-width:1.5;stroke-linecap:round"
         id="path1195" />
    </g>
    <g
       id="line2d_18"
       transform="matrix(0.23728505,0,0,0.23728505,21.166666,10.583333)" />
    <g
       id="line2d_19"
       transform="matrix(0.23728505,0,0,0.23728505,21.166666,10.583333)">
      <path
         clip-path="url(#p3d4fa7853e)"
         d="m 229.5,461.94273 v 12.90185"
         style="fill:none;stroke:#4b4b4b;stroke-width:1.5;stroke-linecap:round"
         id="path1199" />
    </g>
    <g
       id="line2d_20"
       transform="matrix(0.23728505,0,0,0.23728505,21.166666,10.583333)">
      <path
         clip-path="url(#p3d4fa7853e)"
         d="m 229.5,449.86441 v -15.743"
         style="fill:none;stroke:#4b4b4b;stroke-width:1.5;stroke-linecap:round"
         id="path1202" />
    </g>
    <g
       id="line2d_21"
       transform="matrix(0.23728505,0,0,0.23728505,21.166666,10.583333)">
      <path
         clip-path="url(#p3d4fa7853e)"
         d="m 218.34,474.84458 h 22.32"
         style="fill:none;stroke:#4b4b4b;stroke-width:1.5;stroke-linecap:round"
         id="path1205" />
    </g>
    <g
       id="line2d_22"
       transform="matrix(0.23728505,0,0,0.23728505,21.166666,10.583333)">
      <path
         clip-path="url(#p3d4fa7853e)"
         d="m 218.34,434.12141 h 22.32"
         style="fill:none;stroke:#4b4b4b;stroke-width:1.5;stroke-linecap:round"
         id="path1208" />
    </g>
    <g
       id="line2d_23"
       transform="matrix(0.23728505,0,0,0.23728505,21.166666,10.583333)">
      <defs
         id="defs1212">
        <path
           d="M 0,3.535534 2.12132,0 0,-3.535534 -2.12132,0 Z"
           id="path1765"
           style="stroke:#4b4b4b;stroke-linejoin:miter" />
      </defs>
      <g
         clip-path="url(#p3d4fa7853e)"
         id="g1218">
        <use
           style="fill:#4b4b4b;stroke:#4b4b4b;stroke-linejoin:miter"
           x="229.5"
           xlink:href="#m326c6105c1"
           y="482.58569"
           id="use1214"
           width="100%"
           height="100%" />
        <use
           style="fill:#4b4b4b;stroke:#4b4b4b;stroke-linejoin:miter"
           x="229.5"
           xlink:href="#m326c6105c1"
           y="426.75089"
           id="use1216"
           width="100%"
           height="100%" />
      </g>
    </g>
    <g
       id="line2d_24"
       transform="matrix(0.23728505,0,0,0.23728505,21.166666,10.583333)">
      <path
         clip-path="url(#p3d4fa7853e)"
         d="m 285.3,455.08005 v 29.15268"
         style="fill:none;stroke:#4b4b4b;stroke-width:1.5;stroke-linecap:round"
         id="path1221" />
    </g>
    <g
       id="line2d_25"
       transform="matrix(0.23728505,0,0,0.23728505,21.166666,10.583333)">
      <path
         clip-path="url(#p3d4fa7853e)"
         d="M 285.3,434.492 V 406.76676"
         style="fill:none;stroke:#4b4b4b;stroke-width:1.5;stroke-linecap:round"
         id="path1224" />
    </g>
    <g
       id="line2d_26"
       transform="matrix(0.23728505,0,0,0.23728505,21.166666,10.583333)">
      <path
         clip-path="url(#p3d4fa7853e)"
         d="m 274.14,484.23273 h 22.32"
         style="fill:none;stroke:#4b4b4b;stroke-width:1.5;stroke-linecap:round"
         id="path1227" />
    </g>
    <g
       id="line2d_27"
       transform="matrix(0.23728505,0,0,0.23728505,21.166666,10.583333)">
      <path
         clip-path="url(#p3d4fa7853e)"
         d="m 274.14,406.76676 h 22.32"
         style="fill:none;stroke:#4b4b4b;stroke-width:1.5;stroke-linecap:round"
         id="path1230" />
    </g>
    <g
       id="line2d_28"
       transform="matrix(0.23728505,0,0,0.23728505,21.166666,10.583333)">
      <g
         clip-path="url(#p3d4fa7853e)"
         id="g1235">
        <use
           style="fill:#4b4b4b;stroke:#4b4b4b;stroke-linejoin:miter"
           x="285.29999"
           xlink:href="#m326c6105c1"
           y="362.84558"
           id="use1233"
           width="100%"
           height="100%" />
      </g>
    </g>
    <g
       id="line2d_29"
       transform="matrix(0.23728505,0,0,0.23728505,21.166666,10.583333)">
      <path
         clip-path="url(#p3d4fa7853e)"
         d="M 341.1,438.60961 V 460.5702"
         style="fill:none;stroke:#4b4b4b;stroke-width:1.5;stroke-linecap:round"
         id="path1238" />
    </g>
    <g
       id="line2d_30"
       transform="matrix(0.23728505,0,0,0.23728505,21.166666,10.583333)">
      <path
         clip-path="url(#p3d4fa7853e)"
         d="M 341.1,422.68818 V 399.08055"
         style="fill:none;stroke:#4b4b4b;stroke-width:1.5;stroke-linecap:round"
         id="path1241" />
    </g>
    <g
       id="line2d_31"
       transform="matrix(0.23728505,0,0,0.23728505,21.166666,10.583333)">
      <path
         clip-path="url(#p3d4fa7853e)"
         d="m 329.94,460.5702 h 22.32"
         style="fill:none;stroke:#4b4b4b;stroke-width:1.5;stroke-linecap:round"
         id="path1244" />
    </g>
    <g
       id="line2d_32"
       transform="matrix(0.23728505,0,0,0.23728505,21.166666,10.583333)">
      <path
         clip-path="url(#p3d4fa7853e)"
         d="m 329.94,399.08055 h 22.32"
         style="fill:none;stroke:#4b4b4b;stroke-width:1.5;stroke-linecap:round"
         id="path1247" />
    </g>
    <g
       id="line2d_33"
       transform="matrix(0.23728505,0,0,0.23728505,21.166666,10.583333)">
      <g
         clip-path="url(#p3d4fa7853e)"
         id="g1284">
        <use
           style="fill:#4b4b4b;stroke:#4b4b4b;stroke-linejoin:miter"
           x="341.10001"
           xlink:href="#m326c6105c1"
           y="463.31528"
           id="use1250"
           width="100%"
           height="100%" />
        <use
           style="fill:#4b4b4b;stroke:#4b4b4b;stroke-linejoin:miter"
           x="341.10001"
           xlink:href="#m326c6105c1"
           y="466.60934"
           id="use1252"
           width="100%"
           height="100%" />
        <use
           style="fill:#4b4b4b;stroke:#4b4b4b;stroke-linejoin:miter"
           x="341.10001"
           xlink:href="#m326c6105c1"
           y="470.45245"
           id="use1254"
           width="100%"
           height="100%" />
        <use
           style="fill:#4b4b4b;stroke:#4b4b4b;stroke-linejoin:miter"
           x="341.10001"
           xlink:href="#m326c6105c1"
           y="469.14417"
           id="use1256"
           width="100%"
           height="100%" />
        <use
           style="fill:#4b4b4b;stroke:#4b4b4b;stroke-linejoin:miter"
           x="341.10001"
           xlink:href="#m326c6105c1"
           y="472.65237"
           id="use1258"
           width="100%"
           height="100%" />
        <use
           style="fill:#4b4b4b;stroke:#4b4b4b;stroke-linejoin:miter"
           x="341.10001"
           xlink:href="#m326c6105c1"
           y="466.88385"
           id="use1260"
           width="100%"
           height="100%" />
        <use
           style="fill:#4b4b4b;stroke:#4b4b4b;stroke-linejoin:miter"
           x="341.10001"
           xlink:href="#m326c6105c1"
           y="389.47281"
           id="use1262"
           width="100%"
           height="100%" />
        <use
           style="fill:#4b4b4b;stroke:#4b4b4b;stroke-linejoin:miter"
           x="341.10001"
           xlink:href="#m326c6105c1"
           y="377.69644"
           id="use1264"
           width="100%"
           height="100%" />
        <use
           style="fill:#4b4b4b;stroke:#4b4b4b;stroke-linejoin:miter"
           x="341.10001"
           xlink:href="#m326c6105c1"
           y="383.98267"
           id="use1266"
           width="100%"
           height="100%" />
        <use
           style="fill:#4b4b4b;stroke:#4b4b4b;stroke-linejoin:miter"
           x="341.10001"
           xlink:href="#m326c6105c1"
           y="379.86505"
           id="use1268"
           width="100%"
           height="100%" />
        <use
           style="fill:#4b4b4b;stroke:#4b4b4b;stroke-linejoin:miter"
           x="341.10001"
           xlink:href="#m326c6105c1"
           y="380.68857"
           id="use1270"
           width="100%"
           height="100%" />
        <use
           style="fill:#4b4b4b;stroke:#4b4b4b;stroke-linejoin:miter"
           x="341.10001"
           xlink:href="#m326c6105c1"
           y="394.96295"
           id="use1272"
           width="100%"
           height="100%" />
        <use
           style="fill:#4b4b4b;stroke:#4b4b4b;stroke-linejoin:miter"
           x="341.10001"
           xlink:href="#m326c6105c1"
           y="383.70813"
           id="use1274"
           width="100%"
           height="100%" />
        <use
           style="fill:#4b4b4b;stroke:#4b4b4b;stroke-linejoin:miter"
           x="341.10001"
           xlink:href="#m326c6105c1"
           y="396.88449"
           id="use1276"
           width="100%"
           height="100%" />
        <use
           style="fill:#4b4b4b;stroke:#4b4b4b;stroke-linejoin:miter"
           x="341.10001"
           xlink:href="#m326c6105c1"
           y="393.31589"
           id="use1278"
           width="100%"
           height="100%" />
        <use
           style="fill:#4b4b4b;stroke:#4b4b4b;stroke-linejoin:miter"
           x="341.10001"
           xlink:href="#m326c6105c1"
           y="393.59039"
           id="use1280"
           width="100%"
           height="100%" />
        <use
           style="fill:#4b4b4b;stroke:#4b4b4b;stroke-linejoin:miter"
           x="341.10001"
           xlink:href="#m326c6105c1"
           y="397.90567"
           id="use1282"
           width="100%"
           height="100%" />
      </g>
    </g>
    <g
       id="line2d_34"
       transform="matrix(0.23728505,0,0,0.23728505,21.166666,10.583333)">
      <path
         clip-path="url(#p3d4fa7853e)"
         d="m 396.9,427.01168 v 33.0095"
         style="fill:none;stroke:#4b4b4b;stroke-width:1.5;stroke-linecap:round"
         id="path1287" />
    </g>
    <g
       id="line2d_35"
       transform="matrix(0.23728505,0,0,0.23728505,21.166666,10.583333)">
      <path
         clip-path="url(#p3d4fa7853e)"
         d="M 396.9,404.02169 V 369.98278"
         style="fill:none;stroke:#4b4b4b;stroke-width:1.5;stroke-linecap:round"
         id="path1290" />
    </g>
    <g
       id="line2d_36"
       transform="matrix(0.23728505,0,0,0.23728505,21.166666,10.583333)">
      <path
         clip-path="url(#p3d4fa7853e)"
         d="m 385.74,460.02118 h 22.32"
         style="fill:none;stroke:#4b4b4b;stroke-width:1.5;stroke-linecap:round"
         id="path1293" />
    </g>
    <g
       id="line2d_37"
       transform="matrix(0.23728505,0,0,0.23728505,21.166666,10.583333)">
      <path
         clip-path="url(#p3d4fa7853e)"
         d="m 385.74,369.98278 h 22.32"
         style="fill:none;stroke:#4b4b4b;stroke-width:1.5;stroke-linecap:round"
         id="path1296" />
    </g>
    <g
       id="line2d_38"
       transform="matrix(0.23728505,0,0,0.23728505,21.166666,10.583333)">
      <g
         clip-path="url(#p3d4fa7853e)"
         id="g1317">
        <use
           style="fill:#4b4b4b;stroke:#4b4b4b;stroke-linejoin:miter"
           x="396.89999"
           xlink:href="#m326c6105c1"
           y="461.66821"
           id="use1299"
           width="100%"
           height="100%" />
        <use
           style="fill:#4b4b4b;stroke:#4b4b4b;stroke-linejoin:miter"
           x="396.89999"
           xlink:href="#m326c6105c1"
           y="360.92404"
           id="use1301"
           width="100%"
           height="100%" />
        <use
           style="fill:#4b4b4b;stroke:#4b4b4b;stroke-linejoin:miter"
           x="396.89999"
           xlink:href="#m326c6105c1"
           y="369.43378"
           id="use1303"
           width="100%"
           height="100%" />
        <use
           style="fill:#4b4b4b;stroke:#4b4b4b;stroke-linejoin:miter"
           x="396.89999"
           xlink:href="#m326c6105c1"
           y="351.31628"
           id="use1305"
           width="100%"
           height="100%" />
        <use
           style="fill:#4b4b4b;stroke:#4b4b4b;stroke-linejoin:miter"
           x="396.89999"
           xlink:href="#m326c6105c1"
           y="362.02206"
           id="use1307"
           width="100%"
           height="100%" />
        <use
           style="fill:#4b4b4b;stroke:#4b4b4b;stroke-linejoin:miter"
           x="396.89999"
           xlink:href="#m326c6105c1"
           y="366.13968"
           id="use1309"
           width="100%"
           height="100%" />
        <use
           style="fill:#4b4b4b;stroke:#4b4b4b;stroke-linejoin:miter"
           x="396.89999"
           xlink:href="#m326c6105c1"
           y="354.06134"
           id="use1311"
           width="100%"
           height="100%" />
        <use
           style="fill:#4b4b4b;stroke:#4b4b4b;stroke-linejoin:miter"
           x="396.89999"
           xlink:href="#m326c6105c1"
           y="362.84558"
           id="use1313"
           width="100%"
           height="100%" />
        <use
           style="fill:#4b4b4b;stroke:#4b4b4b;stroke-linejoin:miter"
           x="396.89999"
           xlink:href="#m326c6105c1"
           y="352.43079"
           id="use1315"
           width="100%"
           height="100%" />
      </g>
    </g>
    <g
       id="line2d_39"
       transform="matrix(0.23728505,0,0,0.23728505,21.166666,10.583333)">
      <path
         clip-path="url(#p3d4fa7853e)"
         d="m 452.7,404.86168 v 34.35184"
         style="fill:none;stroke:#4b4b4b;stroke-width:1.5;stroke-linecap:round"
         id="path1320" />
    </g>
    <g
       id="line2d_40"
       transform="matrix(0.23728505,0,0,0.23728505,21.166666,10.583333)">
      <path
         clip-path="url(#p3d4fa7853e)"
         d="m 452.7,376.70821 v -39.1173"
         style="fill:none;stroke:#4b4b4b;stroke-width:1.5;stroke-linecap:round"
         id="path1323" />
    </g>
    <g
       id="line2d_41"
       transform="matrix(0.23728505,0,0,0.23728505,21.166666,10.583333)">
      <path
         clip-path="url(#p3d4fa7853e)"
         d="m 441.54,439.21352 h 22.32"
         style="fill:none;stroke:#4b4b4b;stroke-width:1.5;stroke-linecap:round"
         id="path1326" />
    </g>
    <g
       id="line2d_42"
       transform="matrix(0.23728505,0,0,0.23728505,21.166666,10.583333)">
      <path
         clip-path="url(#p3d4fa7853e)"
         d="m 441.54,337.59091 h 22.32"
         style="fill:none;stroke:#4b4b4b;stroke-width:1.5;stroke-linecap:round"
         id="path1329" />
    </g>
    <g
       id="line2d_43"
       transform="matrix(0.23728505,0,0,0.23728505,21.166666,10.583333)">
      <g
         clip-path="url(#p3d4fa7853e)"
         id="g1356">
        <use
           style="fill:#4b4b4b;stroke:#4b4b4b;stroke-linejoin:miter"
           x="452.70001"
           xlink:href="#m326c6105c1"
           y="458.09964"
           id="use1332"
           width="100%"
           height="100%" />
        <use
           style="fill:#4b4b4b;stroke:#4b4b4b;stroke-linejoin:miter"
           x="452.70001"
           xlink:href="#m326c6105c1"
           y="292.5882"
           id="use1334"
           width="100%"
           height="100%" />
        <use
           style="fill:#4b4b4b;stroke:#4b4b4b;stroke-linejoin:miter"
           x="452.70001"
           xlink:href="#m326c6105c1"
           y="327.70865"
           id="use1336"
           width="100%"
           height="100%" />
        <use
           style="fill:#4b4b4b;stroke:#4b4b4b;stroke-linejoin:miter"
           x="452.70001"
           xlink:href="#m326c6105c1"
           y="327.70865"
           id="use1338"
           width="100%"
           height="100%" />
        <use
           style="fill:#4b4b4b;stroke:#4b4b4b;stroke-linejoin:miter"
           x="452.70001"
           xlink:href="#m326c6105c1"
           y="332.17105"
           id="use1340"
           width="100%"
           height="100%" />
        <use
           style="fill:#4b4b4b;stroke:#4b4b4b;stroke-linejoin:miter"
           x="452.70001"
           xlink:href="#m326c6105c1"
           y="332.37527"
           id="use1342"
           width="100%"
           height="100%" />
        <use
           style="fill:#4b4b4b;stroke:#4b4b4b;stroke-linejoin:miter"
           x="452.70001"
           xlink:href="#m326c6105c1"
           y="297.51285"
           id="use1344"
           width="100%"
           height="100%" />
        <use
           style="fill:#4b4b4b;stroke:#4b4b4b;stroke-linejoin:miter"
           x="452.70001"
           xlink:href="#m326c6105c1"
           y="330.04196"
           id="use1346"
           width="100%"
           height="100%" />
        <use
           style="fill:#4b4b4b;stroke:#4b4b4b;stroke-linejoin:miter"
           x="452.70001"
           xlink:href="#m326c6105c1"
           y="319.47342"
           id="use1348"
           width="100%"
           height="100%" />
        <use
           style="fill:#4b4b4b;stroke:#4b4b4b;stroke-linejoin:miter"
           x="452.70001"
           xlink:href="#m326c6105c1"
           y="316.17935"
           id="use1350"
           width="100%"
           height="100%" />
        <use
           style="fill:#4b4b4b;stroke:#4b4b4b;stroke-linejoin:miter"
           x="452.70001"
           xlink:href="#m326c6105c1"
           y="323.31653"
           id="use1352"
           width="100%"
           height="100%" />
        <use
           style="fill:#4b4b4b;stroke:#4b4b4b;stroke-linejoin:miter"
           x="452.70001"
           xlink:href="#m326c6105c1"
           y="319.47342"
           id="use1354"
           width="100%"
           height="100%" />
      </g>
    </g>
    <g
       id="line2d_44"
       transform="matrix(0.23728505,0,0,0.23728505,21.166666,10.583333)">
      <path
         clip-path="url(#p3d4fa7853e)"
         d="m 508.5,374.61783 v 48.07035"
         style="fill:none;stroke:#4b4b4b;stroke-width:1.5;stroke-linecap:round"
         id="path1359" />
    </g>
    <g
       id="line2d_45"
       transform="matrix(0.23728505,0,0,0.23728505,21.166666,10.583333)">
      <path
         clip-path="url(#p3d4fa7853e)"
         d="M 508.5,335.2576 V 278.29733"
         style="fill:none;stroke:#4b4b4b;stroke-width:1.5;stroke-linecap:round"
         id="path1362" />
    </g>
    <g
       id="line2d_46"
       transform="matrix(0.23728505,0,0,0.23728505,21.166666,10.583333)">
      <path
         clip-path="url(#p3d4fa7853e)"
         d="m 497.34,422.68818 h 22.32"
         style="fill:none;stroke:#4b4b4b;stroke-width:1.5;stroke-linecap:round"
         id="path1365" />
    </g>
    <g
       id="line2d_47"
       transform="matrix(0.23728505,0,0,0.23728505,21.166666,10.583333)">
      <path
         clip-path="url(#p3d4fa7853e)"
         d="m 497.34,278.29733 h 22.32"
         style="fill:none;stroke:#4b4b4b;stroke-width:1.5;stroke-linecap:round"
         id="path1368" />
    </g>
    <g
       id="line2d_48"
       transform="matrix(0.23728505,0,0,0.23728505,21.166666,10.583333)">
      <g
         clip-path="url(#p3d4fa7853e)"
         id="g1383">
        <use
           style="fill:#4b4b4b;stroke:#4b4b4b;stroke-linejoin:miter"
           x="508.5"
           xlink:href="#m326c6105c1"
           y="436.41354"
           id="use1371"
           width="100%"
           height="100%" />
        <use
           style="fill:#4b4b4b;stroke:#4b4b4b;stroke-linejoin:miter"
           x="508.5"
           xlink:href="#m326c6105c1"
           y="261.8269"
           id="use1373"
           width="100%"
           height="100%" />
        <use
           style="fill:#4b4b4b;stroke:#4b4b4b;stroke-linejoin:miter"
           x="508.5"
           xlink:href="#m326c6105c1"
           y="267.31705"
           id="use1375"
           width="100%"
           height="100%" />
        <use
           style="fill:#4b4b4b;stroke:#4b4b4b;stroke-linejoin:miter"
           x="508.5"
           xlink:href="#m326c6105c1"
           y="271.16013"
           id="use1377"
           width="100%"
           height="100%" />
        <use
           style="fill:#4b4b4b;stroke:#4b4b4b;stroke-linejoin:miter"
           x="508.5"
           xlink:href="#m326c6105c1"
           y="208.02345"
           id="use1379"
           width="100%"
           height="100%" />
        <use
           style="fill:#4b4b4b;stroke:#4b4b4b;stroke-linejoin:miter"
           x="508.5"
           xlink:href="#m326c6105c1"
           y="270.13348"
           id="use1381"
           width="100%"
           height="100%" />
      </g>
    </g>
    <g
       id="line2d_49"
       transform="matrix(0.23728505,0,0,0.23728505,21.166666,10.583333)">
      <path
         clip-path="url(#p3d4fa7853e)"
         d="m 564.3,328.26837 v 43.91047"
         style="fill:none;stroke:#4b4b4b;stroke-width:1.5;stroke-linecap:round"
         id="path1386" />
    </g>
    <g
       id="line2d_50"
       transform="matrix(0.23728505,0,0,0.23728505,21.166666,10.583333)">
      <path
         clip-path="url(#p3d4fa7853e)"
         d="M 564.3,289.43354 V 237.12123"
         style="fill:none;stroke:#4b4b4b;stroke-width:1.5;stroke-linecap:round"
         id="path1389" />
    </g>
    <g
       id="line2d_51"
       transform="matrix(0.23728505,0,0,0.23728505,21.166666,10.583333)">
      <path
         clip-path="url(#p3d4fa7853e)"
         d="m 553.14,372.17884 h 22.32"
         style="fill:none;stroke:#4b4b4b;stroke-width:1.5;stroke-linecap:round"
         id="path1392" />
    </g>
    <g
       id="line2d_52"
       transform="matrix(0.23728505,0,0,0.23728505,21.166666,10.583333)">
      <path
         clip-path="url(#p3d4fa7853e)"
         d="m 553.14,237.12123 h 22.32"
         style="fill:none;stroke:#4b4b4b;stroke-width:1.5;stroke-linecap:round"
         id="path1395" />
    </g>
    <g
       id="line2d_53"
       transform="matrix(0.23728505,0,0,0.23728505,21.166666,10.583333)">
      <g
         clip-path="url(#p3d4fa7853e)"
         id="g1406">
        <use
           style="fill:#4b4b4b;stroke:#4b4b4b;stroke-linejoin:miter"
           x="564.29999"
           xlink:href="#m326c6105c1"
           y="227.87747"
           id="use1398"
           width="100%"
           height="100%" />
        <use
           style="fill:#4b4b4b;stroke:#4b4b4b;stroke-linejoin:miter"
           x="564.29999"
           xlink:href="#m326c6105c1"
           y="183.35458"
           id="use1400"
           width="100%"
           height="100%" />
        <use
           style="fill:#4b4b4b;stroke:#4b4b4b;stroke-linejoin:miter"
           x="564.29999"
           xlink:href="#m326c6105c1"
           y="167.58469"
           id="use1402"
           width="100%"
           height="100%" />
        <use
           style="fill:#4b4b4b;stroke:#4b4b4b;stroke-linejoin:miter"
           x="564.29999"
           xlink:href="#m326c6105c1"
           y="197.8222"
           id="use1404"
           width="100%"
           height="100%" />
      </g>
    </g>
    <g
       id="line2d_54"
       transform="matrix(0.23728505,0,0,0.23728505,21.166666,10.583333)">
      <path
         clip-path="url(#p3d4fa7853e)"
         d="m 620.1,311.58134 v 90.38154"
         style="fill:none;stroke:#4b4b4b;stroke-width:1.5;stroke-linecap:round"
         id="path1409" />
    </g>
    <g
       id="line2d_55"
       transform="matrix(0.23728505,0,0,0.23728505,21.166666,10.583333)">
      <path
         clip-path="url(#p3d4fa7853e)"
         d="M 620.1,243.77803 V 160.25918"
         style="fill:none;stroke:#4b4b4b;stroke-width:1.5;stroke-linecap:round"
         id="path1412" />
    </g>
    <g
       id="line2d_56"
       transform="matrix(0.23728505,0,0,0.23728505,21.166666,10.583333)">
      <path
         clip-path="url(#p3d4fa7853e)"
         d="m 608.94,401.96288 h 22.32"
         style="fill:none;stroke:#4b4b4b;stroke-width:1.5;stroke-linecap:round"
         id="path1415" />
    </g>
    <g
       id="line2d_57"
       transform="matrix(0.23728505,0,0,0.23728505,21.166666,10.583333)">
      <path
         clip-path="url(#p3d4fa7853e)"
         d="m 608.94,160.25918 h 22.32"
         style="fill:none;stroke:#4b4b4b;stroke-width:1.5;stroke-linecap:round"
         id="path1418" />
    </g>
    <use
       style="fill:#4b4b4b;stroke:#4b4b4b;stroke-linejoin:miter"
       x="620.09998"
       xlink:href="#m326c6105c1"
       y="415.55099"
       id="use1421"
       width="100%"
       height="100%"
       transform="matrix(0.23728505,0,0,0.23728505,21.166666,10.583333)" />
    <use
       style="fill:#ff6600;stroke:#ffff00;stroke-linejoin:miter;stroke-width:1.00019469;stroke-miterlimit:4;stroke-dasharray:none;stroke-opacity:1"
       x="620.09998"
       xlink:href="#m326c6105c1"
       y="88.887276"
       id="use1423"
       width="100%"
       height="100%"
       transform="matrix(0.23728505,0,0,0.23728505,21.166666,10.583333)" />
    <use
       style="fill:#ff6600;stroke:#ffff00;stroke-linejoin:miter"
       x="620.09998"
       xlink:href="#m326c6105c1"
       y="94.377419"
       id="use1425"
       width="100%"
       height="100%"
       transform="matrix(0.23728505,0,0,0.23728505,21.166666,10.583333)" />
    <g
       id="line2d_59"
       transform="matrix(0.23728505,0,0,0.23728505,21.166666,10.583333)">
      <path
         clip-path="url(#p3d4fa7853e)"
         d="m 95.58,475.86025 h 44.64"
         style="fill:none;stroke:#4b4b4b;stroke-width:1.5;stroke-linecap:round"
         id="path1430" />
    </g>
    <g
       id="line2d_60"
       transform="matrix(0.23728505,0,0,0.23728505,21.166666,10.583333)">
      <path
         clip-path="url(#p3d4fa7853e)"
         d="m 151.38,470.45246 h 44.64"
         style="fill:none;stroke:#4b4b4b;stroke-width:1.5;stroke-linecap:round"
         id="path1433" />
    </g>
    <g
       id="line2d_61"
       transform="matrix(0.23728505,0,0,0.23728505,21.166666,10.583333)">
      <path
         clip-path="url(#p3d4fa7853e)"
         d="m 207.18,456.04082 h 44.64"
         style="fill:none;stroke:#4b4b4b;stroke-width:1.5;stroke-linecap:round"
         id="path1436" />
    </g>
    <g
       id="line2d_62"
       transform="matrix(0.23728505,0,0,0.23728505,21.166666,10.583333)">
      <path
         clip-path="url(#p3d4fa7853e)"
         d="m 262.98,444.09976 h 44.64"
         style="fill:none;stroke:#4b4b4b;stroke-width:1.5;stroke-linecap:round"
         id="path1439" />
    </g>
    <g
       id="line2d_63"
       transform="matrix(0.23728505,0,0,0.23728505,21.166666,10.583333)">
      <path
         clip-path="url(#p3d4fa7853e)"
         d="m 318.78,430.37439 h 44.64"
         style="fill:none;stroke:#4b4b4b;stroke-width:1.5;stroke-linecap:round"
         id="path1442" />
    </g>
    <g
       id="line2d_64"
       transform="matrix(0.23728505,0,0,0.23728505,21.166666,10.583333)">
      <path
         clip-path="url(#p3d4fa7853e)"
         d="m 374.58,415.55099 h 44.64"
         style="fill:none;stroke:#4b4b4b;stroke-width:1.5;stroke-linecap:round"
         id="path1445" />
    </g>
    <g
       id="line2d_65"
       transform="matrix(0.23728505,0,0,0.23728505,21.166666,10.583333)">
      <path
         clip-path="url(#p3d4fa7853e)"
         d="m 430.38,393.513 h 44.64"
         style="fill:none;stroke:#4b4b4b;stroke-width:1.5;stroke-linecap:round"
         id="path1448" />
    </g>
    <g
       id="line2d_66"
       transform="matrix(0.23728505,0,0,0.23728505,21.166666,10.583333)">
      <path
         clip-path="url(#p3d4fa7853e)"
         d="m 486.18,355.29663 h 44.64"
         style="fill:none;stroke:#4b4b4b;stroke-width:1.5;stroke-linecap:round"
         id="path1451" />
    </g>
    <g
       id="line2d_67"
       transform="matrix(0.23728505,0,0,0.23728505,21.166666,10.583333)">
      <path
         clip-path="url(#p3d4fa7853e)"
         d="m 541.98,313.98328 h 44.64"
         style="fill:none;stroke:#4b4b4b;stroke-width:1.5;stroke-linecap:round"
         id="path1454" />
    </g>
    <g
       id="line2d_68"
       transform="matrix(0.23728505,0,0,0.23728505,21.166666,10.583333)">
      <path
         clip-path="url(#p3d4fa7853e)"
         d="m 597.78,266.00489 h 44.64"
         style="fill:none;stroke:#4b4b4b;stroke-width:1.5;stroke-linecap:round"
         id="path1457" />
    </g>
    <g
       id="patch_13"
       transform="matrix(0.23728505,0,0,0.23728505,21.166666,10.583333)">
      <path
         d="M 90,504 V 69.12"
         style="fill:none;stroke:#cccccc;stroke-width:0.8;stroke-linecap:square;stroke-linejoin:miter"
         id="path1460" />
    </g>
    <g
       id="patch_14"
       transform="matrix(0.23728505,0,0,0.23728505,21.166666,10.583333)">
      <path
         d="M 648,504 V 69.12"
         style="fill:none;stroke:#cccccc;stroke-width:0.8;stroke-linecap:square;stroke-linejoin:miter"
         id="path1463" />
    </g>
    <g
       id="patch_15"
       transform="matrix(0.23728505,0,0,0.23728505,21.166666,10.583333)">
      <path
         d="M 90,504 H 648"
         style="fill:none;stroke:#cccccc;stroke-width:0.8;stroke-linecap:square;stroke-linejoin:miter"
         id="path1466" />
    </g>
    <g
       id="patch_16"
       transform="matrix(0.23728505,0,0,0.23728505,21.166666,10.583333)">
      <path
         d="M 90,69.12 H 648"
         style="fill:none;stroke:#cccccc;stroke-width:0.8;stroke-linecap:square;stroke-linejoin:miter"
         id="path1469" />
    </g>
    <text
       xml:space="preserve"
       id="text3114"
       style="font-size:3.175px;line-height:1.25;font-family:sans-serif;-inkscape-font-specification:'sans-serif, Normal';text-decoration:none;text-decoration-line:none;text-decoration-color:#000000;white-space:pre;shape-inside:url(#rect3116);fill:#000000;stroke-width:0.837847;stop-color:#000000;"
       transform="translate(6.581512,1.4699824)"><tspan
         x="148.16602"
         y="32.000164"><tspan
           style="stroke-linecap:butt;stroke-linejoin:round">outliers</tspan></tspan></text>
  </g>
</svg>
