<?xml version="1.0" encoding="utf-8" standalone="no"?>
<!DOCTYPE svg PUBLIC "-//W3C//DTD SVG 1.1//EN"
  "http://www.w3.org/Graphics/SVG/1.1/DTD/svg11.dtd">
<!-- Created with matplotlib (https://matplotlib.org/) -->
<svg height="288pt" version="1.1" viewBox="0 0 432 288" width="432pt" xmlns="http://www.w3.org/2000/svg" xmlns:xlink="http://www.w3.org/1999/xlink">
 <metadata>
  <rdf:RDF xmlns:cc="http://creativecommons.org/ns#" xmlns:dc="http://purl.org/dc/elements/1.1/" xmlns:rdf="http://www.w3.org/1999/02/22-rdf-syntax-ns#">
   <cc:Work>
    <dc:type rdf:resource="http://purl.org/dc/dcmitype/StillImage"/>
    <dc:date>2021-08-03T15:38:10.324941</dc:date>
    <dc:format>image/svg+xml</dc:format>
    <dc:creator>
     <cc:Agent>
      <dc:title>Matplotlib v3.3.4, https://matplotlib.org/</dc:title>
     </cc:Agent>
    </dc:creator>
   </cc:Work>
  </rdf:RDF>
 </metadata>
 <defs>
  <style type="text/css">*{stroke-linecap:butt;stroke-linejoin:round;}</style>
 </defs>
 <g id="figure_1">
  <g id="patch_1">
   <path d="M 0 288 
L 432 288 
L 432 0 
L 0 0 
z
" style="fill:#ffffff;"/>
  </g>
  <g id="axes_1">
   <g id="patch_2">
    <path d="M 54 252 
L 388.8 252 
L 388.8 34.56 
L 54 34.56 
z
" style="fill:#ffffff;"/>
   </g>
   <g id="matplotlib.axis_1">
    <g id="xtick_1">
     <g id="text_1">
      <!-- 1 -->
      <g style="fill:#262626;" transform="translate(67.959531 266.157812)scale(0.1 -0.1)">
       <defs>
        <path d="M 37.25 0 
L 28.46875 0 
L 28.46875 56 
Q 25.296875 52.984375 20.140625 49.953125 
Q 14.984375 46.921875 10.890625 45.40625 
L 10.890625 53.90625 
Q 18.265625 57.375 23.78125 62.296875 
Q 29.296875 67.234375 31.59375 71.875 
L 37.25 71.875 
z
" id="ArialMT-49"/>
       </defs>
       <use xlink:href="#ArialMT-49"/>
      </g>
     </g>
    </g>
    <g id="xtick_2">
     <g id="text_2">
      <!-- 2 -->
      <g style="fill:#262626;" transform="translate(101.439531 266.157812)scale(0.1 -0.1)">
       <defs>
        <path d="M 50.34375 8.453125 
L 50.34375 0 
L 3.03125 0 
Q 2.9375 3.171875 4.046875 6.109375 
Q 5.859375 10.9375 9.828125 15.625 
Q 13.8125 20.3125 21.34375 26.46875 
Q 33.015625 36.03125 37.109375 41.625 
Q 41.21875 47.21875 41.21875 52.203125 
Q 41.21875 57.421875 37.46875 61 
Q 33.734375 64.59375 27.734375 64.59375 
Q 21.390625 64.59375 17.578125 60.78125 
Q 13.765625 56.984375 13.71875 50.25 
L 4.6875 51.171875 
Q 5.609375 61.28125 11.65625 66.578125 
Q 17.71875 71.875 27.9375 71.875 
Q 38.234375 71.875 44.234375 66.15625 
Q 50.25 60.453125 50.25 52 
Q 50.25 47.703125 48.484375 43.546875 
Q 46.734375 39.40625 42.65625 34.8125 
Q 38.578125 30.21875 29.109375 22.21875 
Q 21.1875 15.578125 18.9375 13.203125 
Q 16.703125 10.84375 15.234375 8.453125 
z
" id="ArialMT-50"/>
       </defs>
       <use xlink:href="#ArialMT-50"/>
      </g>
     </g>
    </g>
    <g id="xtick_3">
     <g id="text_3">
      <!-- 3 -->
      <g style="fill:#262626;" transform="translate(134.919531 266.157812)scale(0.1 -0.1)">
       <defs>
        <path d="M 4.203125 18.890625 
L 12.984375 20.0625 
Q 14.5 12.59375 18.140625 9.296875 
Q 21.78125 6 27 6 
Q 33.203125 6 37.46875 10.296875 
Q 41.75 14.59375 41.75 20.953125 
Q 41.75 27 37.796875 30.921875 
Q 33.84375 34.859375 27.734375 34.859375 
Q 25.25 34.859375 21.53125 33.890625 
L 22.515625 41.609375 
Q 23.390625 41.5 23.921875 41.5 
Q 29.546875 41.5 34.03125 44.421875 
Q 38.53125 47.359375 38.53125 53.46875 
Q 38.53125 58.296875 35.25 61.46875 
Q 31.984375 64.65625 26.8125 64.65625 
Q 21.6875 64.65625 18.265625 61.421875 
Q 14.84375 58.203125 13.875 51.765625 
L 5.078125 53.328125 
Q 6.6875 62.15625 12.390625 67.015625 
Q 18.109375 71.875 26.609375 71.875 
Q 32.46875 71.875 37.390625 69.359375 
Q 42.328125 66.84375 44.9375 62.5 
Q 47.5625 58.15625 47.5625 53.265625 
Q 47.5625 48.640625 45.0625 44.828125 
Q 42.578125 41.015625 37.703125 38.765625 
Q 44.046875 37.3125 47.5625 32.6875 
Q 51.078125 28.078125 51.078125 21.140625 
Q 51.078125 11.765625 44.234375 5.25 
Q 37.40625 -1.265625 26.953125 -1.265625 
Q 17.53125 -1.265625 11.296875 4.34375 
Q 5.078125 9.96875 4.203125 18.890625 
z
" id="ArialMT-51"/>
       </defs>
       <use xlink:href="#ArialMT-51"/>
      </g>
     </g>
    </g>
    <g id="xtick_4">
     <g id="text_4">
      <!-- 4 -->
      <g style="fill:#262626;" transform="translate(168.399531 266.157812)scale(0.1 -0.1)">
       <defs>
        <path d="M 32.328125 0 
L 32.328125 17.140625 
L 1.265625 17.140625 
L 1.265625 25.203125 
L 33.9375 71.578125 
L 41.109375 71.578125 
L 41.109375 25.203125 
L 50.78125 25.203125 
L 50.78125 17.140625 
L 41.109375 17.140625 
L 41.109375 0 
z
M 32.328125 25.203125 
L 32.328125 57.46875 
L 9.90625 25.203125 
z
" id="ArialMT-52"/>
       </defs>
       <use xlink:href="#ArialMT-52"/>
      </g>
     </g>
    </g>
    <g id="xtick_5">
     <g id="text_5">
      <!-- 5 -->
      <g style="fill:#262626;" transform="translate(201.879531 266.157812)scale(0.1 -0.1)">
       <defs>
        <path d="M 4.15625 18.75 
L 13.375 19.53125 
Q 14.40625 12.796875 18.140625 9.390625 
Q 21.875 6 27.15625 6 
Q 33.5 6 37.890625 10.78125 
Q 42.28125 15.578125 42.28125 23.484375 
Q 42.28125 31 38.0625 35.34375 
Q 33.84375 39.703125 27 39.703125 
Q 22.75 39.703125 19.328125 37.765625 
Q 15.921875 35.84375 13.96875 32.765625 
L 5.71875 33.84375 
L 12.640625 70.609375 
L 48.25 70.609375 
L 48.25 62.203125 
L 19.671875 62.203125 
L 15.828125 42.96875 
Q 22.265625 47.46875 29.34375 47.46875 
Q 38.71875 47.46875 45.15625 40.96875 
Q 51.609375 34.46875 51.609375 24.265625 
Q 51.609375 14.546875 45.953125 7.46875 
Q 39.0625 -1.21875 27.15625 -1.21875 
Q 17.390625 -1.21875 11.203125 4.25 
Q 5.03125 9.71875 4.15625 18.75 
z
" id="ArialMT-53"/>
       </defs>
       <use xlink:href="#ArialMT-53"/>
      </g>
     </g>
    </g>
    <g id="xtick_6">
     <g id="text_6">
      <!-- 6 -->
      <g style="fill:#262626;" transform="translate(235.359531 266.157812)scale(0.1 -0.1)">
       <defs>
        <path d="M 49.75 54.046875 
L 41.015625 53.375 
Q 39.84375 58.546875 37.703125 60.890625 
Q 34.125 64.65625 28.90625 64.65625 
Q 24.703125 64.65625 21.53125 62.3125 
Q 17.390625 59.28125 14.984375 53.46875 
Q 12.59375 47.65625 12.5 36.921875 
Q 15.671875 41.75 20.265625 44.09375 
Q 24.859375 46.4375 29.890625 46.4375 
Q 38.671875 46.4375 44.84375 39.96875 
Q 51.03125 33.5 51.03125 23.25 
Q 51.03125 16.5 48.125 10.71875 
Q 45.21875 4.9375 40.140625 1.859375 
Q 35.0625 -1.21875 28.609375 -1.21875 
Q 17.625 -1.21875 10.6875 6.859375 
Q 3.765625 14.9375 3.765625 33.5 
Q 3.765625 54.25 11.421875 63.671875 
Q 18.109375 71.875 29.4375 71.875 
Q 37.890625 71.875 43.28125 67.140625 
Q 48.6875 62.40625 49.75 54.046875 
z
M 13.875 23.1875 
Q 13.875 18.65625 15.796875 14.5 
Q 17.71875 10.359375 21.1875 8.171875 
Q 24.65625 6 28.46875 6 
Q 34.03125 6 38.03125 10.484375 
Q 42.046875 14.984375 42.046875 22.703125 
Q 42.046875 30.125 38.078125 34.390625 
Q 34.125 38.671875 28.125 38.671875 
Q 22.171875 38.671875 18.015625 34.390625 
Q 13.875 30.125 13.875 23.1875 
z
" id="ArialMT-54"/>
       </defs>
       <use xlink:href="#ArialMT-54"/>
      </g>
     </g>
    </g>
    <g id="xtick_7">
     <g id="text_7">
      <!-- 7 -->
      <g style="fill:#262626;" transform="translate(268.839531 266.157812)scale(0.1 -0.1)">
       <defs>
        <path d="M 4.734375 62.203125 
L 4.734375 70.65625 
L 51.078125 70.65625 
L 51.078125 63.8125 
Q 44.234375 56.546875 37.515625 44.484375 
Q 30.8125 32.421875 27.15625 19.671875 
Q 24.515625 10.6875 23.78125 0 
L 14.75 0 
Q 14.890625 8.453125 18.0625 20.40625 
Q 21.234375 32.375 27.171875 43.484375 
Q 33.109375 54.59375 39.796875 62.203125 
z
" id="ArialMT-55"/>
       </defs>
       <use xlink:href="#ArialMT-55"/>
      </g>
     </g>
    </g>
    <g id="xtick_8">
     <g id="text_8">
      <!-- 8 -->
      <g style="fill:#262626;" transform="translate(302.319531 266.157812)scale(0.1 -0.1)">
       <defs>
        <path d="M 17.671875 38.8125 
Q 12.203125 40.828125 9.5625 44.53125 
Q 6.9375 48.25 6.9375 53.421875 
Q 6.9375 61.234375 12.546875 66.546875 
Q 18.171875 71.875 27.484375 71.875 
Q 36.859375 71.875 42.578125 66.421875 
Q 48.296875 60.984375 48.296875 53.171875 
Q 48.296875 48.1875 45.671875 44.5 
Q 43.0625 40.828125 37.75 38.8125 
Q 44.34375 36.671875 47.78125 31.875 
Q 51.21875 27.09375 51.21875 20.453125 
Q 51.21875 11.28125 44.71875 5.03125 
Q 38.234375 -1.21875 27.640625 -1.21875 
Q 17.046875 -1.21875 10.546875 5.046875 
Q 4.046875 11.328125 4.046875 20.703125 
Q 4.046875 27.6875 7.59375 32.390625 
Q 11.140625 37.109375 17.671875 38.8125 
z
M 15.921875 53.71875 
Q 15.921875 48.640625 19.1875 45.40625 
Q 22.46875 42.1875 27.6875 42.1875 
Q 32.765625 42.1875 36.015625 45.375 
Q 39.265625 48.578125 39.265625 53.21875 
Q 39.265625 58.0625 35.90625 61.359375 
Q 32.5625 64.65625 27.59375 64.65625 
Q 22.5625 64.65625 19.234375 61.421875 
Q 15.921875 58.203125 15.921875 53.71875 
z
M 13.09375 20.65625 
Q 13.09375 16.890625 14.875 13.375 
Q 16.65625 9.859375 20.171875 7.921875 
Q 23.6875 6 27.734375 6 
Q 34.03125 6 38.125 10.046875 
Q 42.234375 14.109375 42.234375 20.359375 
Q 42.234375 26.703125 38.015625 30.859375 
Q 33.796875 35.015625 27.4375 35.015625 
Q 21.234375 35.015625 17.15625 30.90625 
Q 13.09375 26.8125 13.09375 20.65625 
z
" id="ArialMT-56"/>
       </defs>
       <use xlink:href="#ArialMT-56"/>
      </g>
     </g>
    </g>
    <g id="xtick_9">
     <g id="text_9">
      <!-- 9 -->
      <g style="fill:#262626;" transform="translate(335.799531 266.157812)scale(0.1 -0.1)">
       <defs>
        <path d="M 5.46875 16.546875 
L 13.921875 17.328125 
Q 14.984375 11.375 18.015625 8.6875 
Q 21.046875 6 25.78125 6 
Q 29.828125 6 32.875 7.859375 
Q 35.9375 9.71875 37.890625 12.8125 
Q 39.84375 15.921875 41.15625 21.1875 
Q 42.484375 26.46875 42.484375 31.9375 
Q 42.484375 32.515625 42.4375 33.6875 
Q 39.796875 29.5 35.234375 26.875 
Q 30.671875 24.265625 25.34375 24.265625 
Q 16.453125 24.265625 10.296875 30.703125 
Q 4.15625 37.15625 4.15625 47.703125 
Q 4.15625 58.59375 10.578125 65.234375 
Q 17 71.875 26.65625 71.875 
Q 33.640625 71.875 39.421875 68.109375 
Q 45.21875 64.359375 48.21875 57.390625 
Q 51.21875 50.4375 51.21875 37.25 
Q 51.21875 23.53125 48.234375 15.40625 
Q 45.265625 7.28125 39.375 3.03125 
Q 33.5 -1.21875 25.59375 -1.21875 
Q 17.1875 -1.21875 11.859375 3.4375 
Q 6.546875 8.109375 5.46875 16.546875 
z
M 41.453125 48.140625 
Q 41.453125 55.71875 37.421875 60.15625 
Q 33.40625 64.59375 27.734375 64.59375 
Q 21.875 64.59375 17.53125 59.8125 
Q 13.1875 55.03125 13.1875 47.40625 
Q 13.1875 40.578125 17.3125 36.296875 
Q 21.4375 32.03125 27.484375 32.03125 
Q 33.59375 32.03125 37.515625 36.296875 
Q 41.453125 40.578125 41.453125 48.140625 
z
" id="ArialMT-57"/>
       </defs>
       <use xlink:href="#ArialMT-57"/>
      </g>
     </g>
    </g>
    <g id="xtick_10">
     <g id="text_10">
      <!-- 10 -->
      <g style="fill:#262626;" transform="translate(366.499063 266.157812)scale(0.1 -0.1)">
       <defs>
        <path d="M 4.15625 35.296875 
Q 4.15625 48 6.765625 55.734375 
Q 9.375 63.484375 14.515625 67.671875 
Q 19.671875 71.875 27.484375 71.875 
Q 33.25 71.875 37.59375 69.546875 
Q 41.9375 67.234375 44.765625 62.859375 
Q 47.609375 58.5 49.21875 52.21875 
Q 50.828125 45.953125 50.828125 35.296875 
Q 50.828125 22.703125 48.234375 14.96875 
Q 45.65625 7.234375 40.5 3 
Q 35.359375 -1.21875 27.484375 -1.21875 
Q 17.140625 -1.21875 11.234375 6.203125 
Q 4.15625 15.140625 4.15625 35.296875 
z
M 13.1875 35.296875 
Q 13.1875 17.671875 17.3125 11.828125 
Q 21.4375 6 27.484375 6 
Q 33.546875 6 37.671875 11.859375 
Q 41.796875 17.71875 41.796875 35.296875 
Q 41.796875 52.984375 37.671875 58.78125 
Q 33.546875 64.59375 27.390625 64.59375 
Q 21.34375 64.59375 17.71875 59.46875 
Q 13.1875 52.9375 13.1875 35.296875 
z
" id="ArialMT-48"/>
       </defs>
       <use xlink:href="#ArialMT-49"/>
       <use x="55.615234" xlink:href="#ArialMT-48"/>
      </g>
     </g>
    </g>
    <g id="text_11">
     <!-- OverallQual -->
     <g style="fill:#262626;" transform="translate(195.002344 279.303125)scale(0.1 -0.1)">
      <defs>
       <path d="M 4.828125 34.859375 
Q 4.828125 52.6875 14.390625 62.765625 
Q 23.96875 72.859375 39.109375 72.859375 
Q 49.03125 72.859375 56.984375 68.109375 
Q 64.9375 63.375 69.109375 54.90625 
Q 73.296875 46.4375 73.296875 35.6875 
Q 73.296875 24.8125 68.890625 16.21875 
Q 64.5 7.625 56.4375 3.203125 
Q 48.390625 -1.21875 39.0625 -1.21875 
Q 28.953125 -1.21875 20.984375 3.65625 
Q 13.03125 8.546875 8.921875 16.984375 
Q 4.828125 25.4375 4.828125 34.859375 
z
M 14.59375 34.71875 
Q 14.59375 21.78125 21.546875 14.328125 
Q 28.515625 6.890625 39.015625 6.890625 
Q 49.703125 6.890625 56.609375 14.40625 
Q 63.53125 21.921875 63.53125 35.75 
Q 63.53125 44.484375 60.578125 51 
Q 57.625 57.515625 51.921875 61.109375 
Q 46.234375 64.703125 39.15625 64.703125 
Q 29.109375 64.703125 21.84375 57.78125 
Q 14.59375 50.875 14.59375 34.71875 
z
" id="ArialMT-79"/>
       <path d="M 21 0 
L 1.265625 51.859375 
L 10.546875 51.859375 
L 21.6875 20.796875 
Q 23.484375 15.765625 25 10.359375 
Q 26.171875 14.453125 28.265625 20.21875 
L 39.796875 51.859375 
L 48.828125 51.859375 
L 29.203125 0 
z
" id="ArialMT-118"/>
       <path d="M 42.09375 16.703125 
L 51.171875 15.578125 
Q 49.03125 7.625 43.21875 3.21875 
Q 37.40625 -1.171875 28.375 -1.171875 
Q 17 -1.171875 10.328125 5.828125 
Q 3.65625 12.84375 3.65625 25.484375 
Q 3.65625 38.578125 10.390625 45.796875 
Q 17.140625 53.03125 27.875 53.03125 
Q 38.28125 53.03125 44.875 45.953125 
Q 51.46875 38.875 51.46875 26.03125 
Q 51.46875 25.25 51.421875 23.6875 
L 12.75 23.6875 
Q 13.234375 15.140625 17.578125 10.59375 
Q 21.921875 6.0625 28.421875 6.0625 
Q 33.25 6.0625 36.671875 8.59375 
Q 40.09375 11.140625 42.09375 16.703125 
z
M 13.234375 30.90625 
L 42.1875 30.90625 
Q 41.609375 37.453125 38.875 40.71875 
Q 34.671875 45.796875 27.984375 45.796875 
Q 21.921875 45.796875 17.796875 41.75 
Q 13.671875 37.703125 13.234375 30.90625 
z
" id="ArialMT-101"/>
       <path d="M 6.5 0 
L 6.5 51.859375 
L 14.40625 51.859375 
L 14.40625 44 
Q 17.4375 49.515625 20 51.265625 
Q 22.5625 53.03125 25.640625 53.03125 
Q 30.078125 53.03125 34.671875 50.203125 
L 31.640625 42.046875 
Q 28.421875 43.953125 25.203125 43.953125 
Q 22.3125 43.953125 20.015625 42.21875 
Q 17.71875 40.484375 16.75 37.40625 
Q 15.28125 32.71875 15.28125 27.15625 
L 15.28125 0 
z
" id="ArialMT-114"/>
       <path d="M 40.4375 6.390625 
Q 35.546875 2.25 31.03125 0.53125 
Q 26.515625 -1.171875 21.34375 -1.171875 
Q 12.796875 -1.171875 8.203125 3 
Q 3.609375 7.171875 3.609375 13.671875 
Q 3.609375 17.484375 5.34375 20.625 
Q 7.078125 23.78125 9.890625 25.6875 
Q 12.703125 27.59375 16.21875 28.5625 
Q 18.796875 29.25 24.03125 29.890625 
Q 34.671875 31.15625 39.703125 32.90625 
Q 39.75 34.71875 39.75 35.203125 
Q 39.75 40.578125 37.25 42.78125 
Q 33.890625 45.75 27.25 45.75 
Q 21.046875 45.75 18.09375 43.578125 
Q 15.140625 41.40625 13.71875 35.890625 
L 5.125 37.0625 
Q 6.296875 42.578125 8.984375 45.96875 
Q 11.671875 49.359375 16.75 51.1875 
Q 21.828125 53.03125 28.515625 53.03125 
Q 35.15625 53.03125 39.296875 51.46875 
Q 43.453125 49.90625 45.40625 47.53125 
Q 47.359375 45.171875 48.140625 41.546875 
Q 48.578125 39.3125 48.578125 33.453125 
L 48.578125 21.734375 
Q 48.578125 9.46875 49.140625 6.21875 
Q 49.703125 2.984375 51.375 0 
L 42.1875 0 
Q 40.828125 2.734375 40.4375 6.390625 
z
M 39.703125 26.03125 
Q 34.90625 24.078125 25.34375 22.703125 
Q 19.921875 21.921875 17.671875 20.9375 
Q 15.4375 19.96875 14.203125 18.09375 
Q 12.984375 16.21875 12.984375 13.921875 
Q 12.984375 10.40625 15.640625 8.0625 
Q 18.3125 5.71875 23.4375 5.71875 
Q 28.515625 5.71875 32.46875 7.9375 
Q 36.421875 10.15625 38.28125 14.015625 
Q 39.703125 17 39.703125 22.796875 
z
" id="ArialMT-97"/>
       <path d="M 6.390625 0 
L 6.390625 71.578125 
L 15.1875 71.578125 
L 15.1875 0 
z
" id="ArialMT-108"/>
       <path d="M 61.96875 7.671875 
Q 68.5625 3.125 74.125 1.03125 
L 71.34375 -5.5625 
Q 63.625 -2.78125 55.953125 3.21875 
Q 48 -1.21875 38.375 -1.21875 
Q 28.65625 -1.21875 20.75 3.46875 
Q 12.84375 8.15625 8.5625 16.640625 
Q 4.296875 25.140625 4.296875 35.796875 
Q 4.296875 46.390625 8.59375 55.078125 
Q 12.890625 63.765625 20.828125 68.3125 
Q 28.765625 72.859375 38.578125 72.859375 
Q 48.484375 72.859375 56.4375 68.140625 
Q 64.40625 63.421875 68.578125 54.953125 
Q 72.75 46.484375 72.75 35.84375 
Q 72.75 27 70.0625 19.9375 
Q 67.390625 12.890625 61.96875 7.671875 
z
M 41.109375 19.78125 
Q 49.3125 17.484375 54.640625 12.9375 
Q 62.984375 20.5625 62.984375 35.84375 
Q 62.984375 44.53125 60.03125 51.015625 
Q 57.078125 57.515625 51.390625 61.109375 
Q 45.703125 64.703125 38.625 64.703125 
Q 28.03125 64.703125 21.046875 57.453125 
Q 14.0625 50.203125 14.0625 35.796875 
Q 14.0625 21.828125 20.96875 14.359375 
Q 27.875 6.890625 38.625 6.890625 
Q 43.703125 6.890625 48.1875 8.796875 
Q 43.75 11.671875 38.8125 12.890625 
z
" id="ArialMT-81"/>
       <path d="M 40.578125 0 
L 40.578125 7.625 
Q 34.515625 -1.171875 24.125 -1.171875 
Q 19.53125 -1.171875 15.546875 0.578125 
Q 11.578125 2.34375 9.640625 5 
Q 7.71875 7.671875 6.9375 11.53125 
Q 6.390625 14.109375 6.390625 19.734375 
L 6.390625 51.859375 
L 15.1875 51.859375 
L 15.1875 23.09375 
Q 15.1875 16.21875 15.71875 13.8125 
Q 16.546875 10.359375 19.234375 8.375 
Q 21.921875 6.390625 25.875 6.390625 
Q 29.828125 6.390625 33.296875 8.421875 
Q 36.765625 10.453125 38.203125 13.9375 
Q 39.65625 17.4375 39.65625 24.078125 
L 39.65625 51.859375 
L 48.4375 51.859375 
L 48.4375 0 
z
" id="ArialMT-117"/>
      </defs>
      <use xlink:href="#ArialMT-79"/>
      <use x="77.783203" xlink:href="#ArialMT-118"/>
      <use x="127.783203" xlink:href="#ArialMT-101"/>
      <use x="183.398438" xlink:href="#ArialMT-114"/>
      <use x="216.699219" xlink:href="#ArialMT-97"/>
      <use x="272.314453" xlink:href="#ArialMT-108"/>
      <use x="294.53125" xlink:href="#ArialMT-108"/>
      <use x="316.748047" xlink:href="#ArialMT-81"/>
      <use x="394.53125" xlink:href="#ArialMT-117"/>
      <use x="450.146484" xlink:href="#ArialMT-97"/>
      <use x="505.761719" xlink:href="#ArialMT-108"/>
     </g>
    </g>
   </g>
   <g id="matplotlib.axis_2">
    <g id="ytick_1">
     <g id="line2d_1">
      <path clip-path="url(#pbe2a23402e)" d="M 54 251.696669 
L 388.8 251.696669 
" style="fill:none;stroke:#cccccc;stroke-linecap:round;stroke-width:0.8;"/>
     </g>
     <g id="text_12">
      <!-- 0 -->
      <g style="fill:#262626;" transform="translate(41.439062 255.275576)scale(0.1 -0.1)">
       <use xlink:href="#ArialMT-48"/>
      </g>
     </g>
    </g>
    <g id="ytick_2">
     <g id="line2d_2">
      <path clip-path="url(#pbe2a23402e)" d="M 54 224.245937 
L 388.8 224.245937 
" style="fill:none;stroke:#cccccc;stroke-linecap:round;stroke-width:0.8;"/>
     </g>
     <g id="text_13">
      <!-- 100000 -->
      <g style="fill:#262626;" transform="translate(13.634375 227.824843)scale(0.1 -0.1)">
       <use xlink:href="#ArialMT-49"/>
       <use x="55.615234" xlink:href="#ArialMT-48"/>
       <use x="111.230469" xlink:href="#ArialMT-48"/>
       <use x="166.845703" xlink:href="#ArialMT-48"/>
       <use x="222.460938" xlink:href="#ArialMT-48"/>
       <use x="278.076172" xlink:href="#ArialMT-48"/>
      </g>
     </g>
    </g>
    <g id="ytick_3">
     <g id="line2d_3">
      <path clip-path="url(#pbe2a23402e)" d="M 54 196.795204 
L 388.8 196.795204 
" style="fill:none;stroke:#cccccc;stroke-linecap:round;stroke-width:0.8;"/>
     </g>
     <g id="text_14">
      <!-- 200000 -->
      <g style="fill:#262626;" transform="translate(13.634375 200.37411)scale(0.1 -0.1)">
       <use xlink:href="#ArialMT-50"/>
       <use x="55.615234" xlink:href="#ArialMT-48"/>
       <use x="111.230469" xlink:href="#ArialMT-48"/>
       <use x="166.845703" xlink:href="#ArialMT-48"/>
       <use x="222.460938" xlink:href="#ArialMT-48"/>
       <use x="278.076172" xlink:href="#ArialMT-48"/>
      </g>
     </g>
    </g>
    <g id="ytick_4">
     <g id="line2d_4">
      <path clip-path="url(#pbe2a23402e)" d="M 54 169.344471 
L 388.8 169.344471 
" style="fill:none;stroke:#cccccc;stroke-linecap:round;stroke-width:0.8;"/>
     </g>
     <g id="text_15">
      <!-- 300000 -->
      <g style="fill:#262626;" transform="translate(13.634375 172.923377)scale(0.1 -0.1)">
       <use xlink:href="#ArialMT-51"/>
       <use x="55.615234" xlink:href="#ArialMT-48"/>
       <use x="111.230469" xlink:href="#ArialMT-48"/>
       <use x="166.845703" xlink:href="#ArialMT-48"/>
       <use x="222.460938" xlink:href="#ArialMT-48"/>
       <use x="278.076172" xlink:href="#ArialMT-48"/>
      </g>
     </g>
    </g>
    <g id="ytick_5">
     <g id="line2d_5">
      <path clip-path="url(#pbe2a23402e)" d="M 54 141.893738 
L 388.8 141.893738 
" style="fill:none;stroke:#cccccc;stroke-linecap:round;stroke-width:0.8;"/>
     </g>
     <g id="text_16">
      <!-- 400000 -->
      <g style="fill:#262626;" transform="translate(13.634375 145.472644)scale(0.1 -0.1)">
       <use xlink:href="#ArialMT-52"/>
       <use x="55.615234" xlink:href="#ArialMT-48"/>
       <use x="111.230469" xlink:href="#ArialMT-48"/>
       <use x="166.845703" xlink:href="#ArialMT-48"/>
       <use x="222.460938" xlink:href="#ArialMT-48"/>
       <use x="278.076172" xlink:href="#ArialMT-48"/>
      </g>
     </g>
    </g>
    <g id="ytick_6">
     <g id="line2d_6">
      <path clip-path="url(#pbe2a23402e)" d="M 54 114.443005 
L 388.8 114.443005 
" style="fill:none;stroke:#cccccc;stroke-linecap:round;stroke-width:0.8;"/>
     </g>
     <g id="text_17">
      <!-- 500000 -->
      <g style="fill:#262626;" transform="translate(13.634375 118.021911)scale(0.1 -0.1)">
       <use xlink:href="#ArialMT-53"/>
       <use x="55.615234" xlink:href="#ArialMT-48"/>
       <use x="111.230469" xlink:href="#ArialMT-48"/>
       <use x="166.845703" xlink:href="#ArialMT-48"/>
       <use x="222.460938" xlink:href="#ArialMT-48"/>
       <use x="278.076172" xlink:href="#ArialMT-48"/>
      </g>
     </g>
    </g>
    <g id="ytick_7">
     <g id="line2d_7">
      <path clip-path="url(#pbe2a23402e)" d="M 54 86.992272 
L 388.8 86.992272 
" style="fill:none;stroke:#cccccc;stroke-linecap:round;stroke-width:0.8;"/>
     </g>
     <g id="text_18">
      <!-- 600000 -->
      <g style="fill:#262626;" transform="translate(13.634375 90.571179)scale(0.1 -0.1)">
       <use xlink:href="#ArialMT-54"/>
       <use x="55.615234" xlink:href="#ArialMT-48"/>
       <use x="111.230469" xlink:href="#ArialMT-48"/>
       <use x="166.845703" xlink:href="#ArialMT-48"/>
       <use x="222.460938" xlink:href="#ArialMT-48"/>
       <use x="278.076172" xlink:href="#ArialMT-48"/>
      </g>
     </g>
    </g>
    <g id="ytick_8">
     <g id="line2d_8">
      <path clip-path="url(#pbe2a23402e)" d="M 54 59.541539 
L 388.8 59.541539 
" style="fill:none;stroke:#cccccc;stroke-linecap:round;stroke-width:0.8;"/>
     </g>
     <g id="text_19">
      <!-- 700000 -->
      <g style="fill:#262626;" transform="translate(13.634375 63.120446)scale(0.1 -0.1)">
       <use xlink:href="#ArialMT-55"/>
       <use x="55.615234" xlink:href="#ArialMT-48"/>
       <use x="111.230469" xlink:href="#ArialMT-48"/>
       <use x="166.845703" xlink:href="#ArialMT-48"/>
       <use x="222.460938" xlink:href="#ArialMT-48"/>
       <use x="278.076172" xlink:href="#ArialMT-48"/>
      </g>
     </g>
    </g>
    <g id="text_20">
     <!-- SalePrice -->
     <g style="fill:#262626;" transform="translate(7.646875 164.678438)rotate(-90)scale(0.1 -0.1)">
      <defs>
       <path d="M 4.5 23 
L 13.421875 23.78125 
Q 14.0625 18.40625 16.375 14.96875 
Q 18.703125 11.53125 23.578125 9.40625 
Q 28.46875 7.28125 34.578125 7.28125 
Q 39.984375 7.28125 44.140625 8.890625 
Q 48.296875 10.5 50.3125 13.296875 
Q 52.34375 16.109375 52.34375 19.4375 
Q 52.34375 22.796875 50.390625 25.3125 
Q 48.4375 27.828125 43.953125 29.546875 
Q 41.0625 30.671875 31.203125 33.03125 
Q 21.34375 35.40625 17.390625 37.5 
Q 12.25 40.1875 9.734375 44.15625 
Q 7.234375 48.140625 7.234375 53.078125 
Q 7.234375 58.5 10.296875 63.203125 
Q 13.375 67.921875 19.28125 70.359375 
Q 25.203125 72.796875 32.421875 72.796875 
Q 40.375 72.796875 46.453125 70.234375 
Q 52.546875 67.671875 55.8125 62.6875 
Q 59.078125 57.71875 59.328125 51.421875 
L 50.25 50.734375 
Q 49.515625 57.515625 45.28125 60.984375 
Q 41.0625 64.453125 32.8125 64.453125 
Q 24.21875 64.453125 20.28125 61.296875 
Q 16.359375 58.15625 16.359375 53.71875 
Q 16.359375 49.859375 19.140625 47.359375 
Q 21.875 44.875 33.421875 42.265625 
Q 44.96875 39.65625 49.265625 37.703125 
Q 55.515625 34.8125 58.484375 30.390625 
Q 61.46875 25.984375 61.46875 20.21875 
Q 61.46875 14.5 58.203125 9.4375 
Q 54.9375 4.390625 48.796875 1.578125 
Q 42.671875 -1.21875 35.015625 -1.21875 
Q 25.296875 -1.21875 18.71875 1.609375 
Q 12.15625 4.4375 8.421875 10.125 
Q 4.6875 15.828125 4.5 23 
z
" id="ArialMT-83"/>
       <path d="M 7.71875 0 
L 7.71875 71.578125 
L 34.71875 71.578125 
Q 41.84375 71.578125 45.609375 70.90625 
Q 50.875 70.015625 54.4375 67.546875 
Q 58.015625 65.09375 60.1875 60.640625 
Q 62.359375 56.203125 62.359375 50.875 
Q 62.359375 41.75 56.546875 35.421875 
Q 50.734375 29.109375 35.546875 29.109375 
L 17.1875 29.109375 
L 17.1875 0 
z
M 17.1875 37.546875 
L 35.6875 37.546875 
Q 44.875 37.546875 48.734375 40.96875 
Q 52.59375 44.390625 52.59375 50.59375 
Q 52.59375 55.078125 50.3125 58.265625 
Q 48.046875 61.46875 44.34375 62.5 
Q 41.9375 63.140625 35.5 63.140625 
L 17.1875 63.140625 
z
" id="ArialMT-80"/>
       <path d="M 6.640625 61.46875 
L 6.640625 71.578125 
L 15.4375 71.578125 
L 15.4375 61.46875 
z
M 6.640625 0 
L 6.640625 51.859375 
L 15.4375 51.859375 
L 15.4375 0 
z
" id="ArialMT-105"/>
       <path d="M 40.4375 19 
L 49.078125 17.875 
Q 47.65625 8.9375 41.8125 3.875 
Q 35.984375 -1.171875 27.484375 -1.171875 
Q 16.84375 -1.171875 10.375 5.78125 
Q 3.90625 12.75 3.90625 25.734375 
Q 3.90625 34.125 6.6875 40.421875 
Q 9.46875 46.734375 15.15625 49.875 
Q 20.84375 53.03125 27.546875 53.03125 
Q 35.984375 53.03125 41.359375 48.75 
Q 46.734375 44.484375 48.25 36.625 
L 39.703125 35.296875 
Q 38.484375 40.53125 35.375 43.15625 
Q 32.28125 45.796875 27.875 45.796875 
Q 21.234375 45.796875 17.078125 41.03125 
Q 12.9375 36.28125 12.9375 25.984375 
Q 12.9375 15.53125 16.9375 10.796875 
Q 20.953125 6.0625 27.390625 6.0625 
Q 32.5625 6.0625 36.03125 9.234375 
Q 39.5 12.40625 40.4375 19 
z
" id="ArialMT-99"/>
      </defs>
      <use xlink:href="#ArialMT-83"/>
      <use x="66.699219" xlink:href="#ArialMT-97"/>
      <use x="122.314453" xlink:href="#ArialMT-108"/>
      <use x="144.53125" xlink:href="#ArialMT-101"/>
      <use x="200.146484" xlink:href="#ArialMT-80"/>
      <use x="266.845703" xlink:href="#ArialMT-114"/>
      <use x="300.146484" xlink:href="#ArialMT-105"/>
      <use x="322.363281" xlink:href="#ArialMT-99"/>
      <use x="372.363281" xlink:href="#ArialMT-101"/>
     </g>
    </g>
   </g>
   <g id="patch_3">
    <path clip-path="url(#pbe2a23402e)" d="M 57.348 239.419329 
L 84.132 239.419329 
L 84.132 236.440925 
L 57.348 236.440925 
L 57.348 239.419329 
z
" style="fill:#5481a6;stroke:#4b4b4b;stroke-linejoin:miter;stroke-width:1.5;"/>
   </g>
   <g id="patch_4">
    <path clip-path="url(#pbe2a23402e)" d="M 90.828 238.614885 
L 117.612 238.614885 
L 117.612 235.22623 
L 90.828 235.22623 
L 90.828 238.614885 
z
" style="fill:#5481a6;stroke:#4b4b4b;stroke-linejoin:miter;stroke-width:1.5;"/>
   </g>
   <g id="patch_5">
    <path clip-path="url(#pbe2a23402e)" d="M 124.308 230.971366 
L 151.092 230.971366 
L 151.092 224.932205 
L 124.308 224.932205 
L 124.308 230.971366 
z
" style="fill:#5481a6;stroke:#4b4b4b;stroke-linejoin:miter;stroke-width:1.5;"/>
   </g>
   <g id="patch_6">
    <path clip-path="url(#pbe2a23402e)" d="M 157.788 227.540024 
L 184.572 227.540024 
L 184.572 217.246 
L 157.788 217.246 
L 157.788 227.540024 
z
" style="fill:#5481a6;stroke:#4b4b4b;stroke-linejoin:miter;stroke-width:1.5;"/>
   </g>
   <g id="patch_7">
    <path clip-path="url(#pbe2a23402e)" d="M 191.268 219.304805 
L 218.052 219.304805 
L 218.052 211.344092 
L 191.268 211.344092 
L 191.268 219.304805 
z
" style="fill:#5481a6;stroke:#4b4b4b;stroke-linejoin:miter;stroke-width:1.5;"/>
   </g>
   <g id="patch_8">
    <path clip-path="url(#pbe2a23402e)" d="M 224.748 213.505837 
L 251.532 213.505837 
L 251.532 202.010843 
L 224.748 202.010843 
L 224.748 213.505837 
z
" style="fill:#5481a6;stroke:#4b4b4b;stroke-linejoin:miter;stroke-width:1.5;"/>
   </g>
   <g id="patch_9">
    <path clip-path="url(#pbe2a23402e)" d="M 258.228 202.430839 
L 285.012 202.430839 
L 285.012 188.354103 
L 258.228 188.354103 
L 258.228 202.430839 
z
" style="fill:#5481a6;stroke:#4b4b4b;stroke-linejoin:miter;stroke-width:1.5;"/>
   </g>
   <g id="patch_10">
    <path clip-path="url(#pbe2a23402e)" d="M 291.708 187.308917 
L 318.492 187.308917 
L 318.492 167.6288 
L 291.708 167.6288 
L 291.708 187.308917 
z
" style="fill:#5481a6;stroke:#4b4b4b;stroke-linejoin:miter;stroke-width:1.5;"/>
   </g>
   <g id="patch_11">
    <path clip-path="url(#pbe2a23402e)" d="M 325.188 164.134184 
L 351.972 164.134184 
L 351.972 144.716771 
L 325.188 144.716771 
L 325.188 164.134184 
z
" style="fill:#5481a6;stroke:#4b4b4b;stroke-linejoin:miter;stroke-width:1.5;"/>
   </g>
   <g id="patch_12">
    <path clip-path="url(#pbe2a23402e)" d="M 358.668 155.790671 
L 385.452 155.790671 
L 385.452 121.889016 
L 358.668 121.889016 
L 358.668 155.790671 
z
" style="fill:#5481a6;stroke:#4b4b4b;stroke-linejoin:miter;stroke-width:1.5;"/>
   </g>
   <g id="line2d_9">
    <path clip-path="url(#pbe2a23402e)" d="M 70.74 239.419329 
L 70.74 240.908531 
" style="fill:none;stroke:#4b4b4b;stroke-linecap:round;stroke-width:1.5;"/>
   </g>
   <g id="line2d_10">
    <path clip-path="url(#pbe2a23402e)" d="M 70.74 236.440925 
L 70.74 234.951722 
" style="fill:none;stroke:#4b4b4b;stroke-linecap:round;stroke-width:1.5;"/>
   </g>
   <g id="line2d_11">
    <path clip-path="url(#pbe2a23402e)" d="M 64.044 240.908531 
L 77.436 240.908531 
" style="fill:none;stroke:#4b4b4b;stroke-linecap:round;stroke-width:1.5;"/>
   </g>
   <g id="line2d_12">
    <path clip-path="url(#pbe2a23402e)" d="M 64.044 234.951722 
L 77.436 234.951722 
" style="fill:none;stroke:#4b4b4b;stroke-linecap:round;stroke-width:1.5;"/>
   </g>
   <g id="line2d_13"/>
   <g id="line2d_14">
    <path clip-path="url(#pbe2a23402e)" d="M 104.22 238.614885 
L 104.22 242.003541 
" style="fill:none;stroke:#4b4b4b;stroke-linecap:round;stroke-width:1.5;"/>
   </g>
   <g id="line2d_15">
    <path clip-path="url(#pbe2a23402e)" d="M 104.22 235.22623 
L 104.22 235.22623 
" style="fill:none;stroke:#4b4b4b;stroke-linecap:round;stroke-width:1.5;"/>
   </g>
   <g id="line2d_16">
    <path clip-path="url(#pbe2a23402e)" d="M 97.524 242.003541 
L 110.916 242.003541 
" style="fill:none;stroke:#4b4b4b;stroke-linecap:round;stroke-width:1.5;"/>
   </g>
   <g id="line2d_17">
    <path clip-path="url(#pbe2a23402e)" d="M 97.524 235.22623 
L 110.916 235.22623 
" style="fill:none;stroke:#4b4b4b;stroke-linecap:round;stroke-width:1.5;"/>
   </g>
   <g id="line2d_18"/>
   <g id="line2d_19">
    <path clip-path="url(#pbe2a23402e)" d="M 137.7 230.971366 
L 137.7 237.422288 
" style="fill:none;stroke:#4b4b4b;stroke-linecap:round;stroke-width:1.5;"/>
   </g>
   <g id="line2d_20">
    <path clip-path="url(#pbe2a23402e)" d="M 137.7 224.932205 
L 137.7 217.060707 
" style="fill:none;stroke:#4b4b4b;stroke-linecap:round;stroke-width:1.5;"/>
   </g>
   <g id="line2d_21">
    <path clip-path="url(#pbe2a23402e)" d="M 131.004 237.422288 
L 144.396 237.422288 
" style="fill:none;stroke:#4b4b4b;stroke-linecap:round;stroke-width:1.5;"/>
   </g>
   <g id="line2d_22">
    <path clip-path="url(#pbe2a23402e)" d="M 131.004 217.060707 
L 144.396 217.060707 
" style="fill:none;stroke:#4b4b4b;stroke-linecap:round;stroke-width:1.5;"/>
   </g>
   <g id="line2d_23">
    <defs>
     <path d="M 0 3.535534 
L 2.12132 0 
L 0 -3.535534 
L -2.12132 0 
z
" id="mf33c11a6ce" style="stroke:#4b4b4b;stroke-linejoin:miter;"/>
    </defs>
    <g clip-path="url(#pbe2a23402e)">
     <use style="fill:#4b4b4b;stroke:#4b4b4b;stroke-linejoin:miter;" x="137.7" xlink:href="#mf33c11a6ce" y="241.292842"/>
     <use style="fill:#4b4b4b;stroke:#4b4b4b;stroke-linejoin:miter;" x="137.7" xlink:href="#mf33c11a6ce" y="213.375446"/>
    </g>
   </g>
   <g id="line2d_24">
    <path clip-path="url(#pbe2a23402e)" d="M 171.18 227.540024 
L 171.18 242.116364 
" style="fill:none;stroke:#4b4b4b;stroke-linecap:round;stroke-width:1.5;"/>
   </g>
   <g id="line2d_25">
    <path clip-path="url(#pbe2a23402e)" d="M 171.18 217.246 
L 171.18 203.38338 
" style="fill:none;stroke:#4b4b4b;stroke-linecap:round;stroke-width:1.5;"/>
   </g>
   <g id="line2d_26">
    <path clip-path="url(#pbe2a23402e)" d="M 164.484 242.116364 
L 177.876 242.116364 
" style="fill:none;stroke:#4b4b4b;stroke-linecap:round;stroke-width:1.5;"/>
   </g>
   <g id="line2d_27">
    <path clip-path="url(#pbe2a23402e)" d="M 164.484 203.38338 
L 177.876 203.38338 
" style="fill:none;stroke:#4b4b4b;stroke-linecap:round;stroke-width:1.5;"/>
   </g>
   <g id="line2d_28">
    <g clip-path="url(#pbe2a23402e)">
     <use style="fill:#4b4b4b;stroke:#4b4b4b;stroke-linejoin:miter;" x="171.18" xlink:href="#mf33c11a6ce" y="181.422793"/>
    </g>
   </g>
   <g id="line2d_29">
    <path clip-path="url(#pbe2a23402e)" d="M 204.66 219.304805 
L 204.66 230.285098 
" style="fill:none;stroke:#4b4b4b;stroke-linecap:round;stroke-width:1.5;"/>
   </g>
   <g id="line2d_30">
    <path clip-path="url(#pbe2a23402e)" d="M 204.66 211.344092 
L 204.66 199.540277 
" style="fill:none;stroke:#4b4b4b;stroke-linecap:round;stroke-width:1.5;"/>
   </g>
   <g id="line2d_31">
    <path clip-path="url(#pbe2a23402e)" d="M 197.964 230.285098 
L 211.356 230.285098 
" style="fill:none;stroke:#4b4b4b;stroke-linecap:round;stroke-width:1.5;"/>
   </g>
   <g id="line2d_32">
    <path clip-path="url(#pbe2a23402e)" d="M 197.964 199.540277 
L 211.356 199.540277 
" style="fill:none;stroke:#4b4b4b;stroke-linecap:round;stroke-width:1.5;"/>
   </g>
   <g id="line2d_33">
    <g clip-path="url(#pbe2a23402e)">
     <use style="fill:#4b4b4b;stroke:#4b4b4b;stroke-linejoin:miter;" x="204.66" xlink:href="#mf33c11a6ce" y="231.657634"/>
     <use style="fill:#4b4b4b;stroke:#4b4b4b;stroke-linejoin:miter;" x="204.66" xlink:href="#mf33c11a6ce" y="233.304678"/>
     <use style="fill:#4b4b4b;stroke:#4b4b4b;stroke-linejoin:miter;" x="204.66" xlink:href="#mf33c11a6ce" y="235.22623"/>
     <use style="fill:#4b4b4b;stroke:#4b4b4b;stroke-linejoin:miter;" x="204.66" xlink:href="#mf33c11a6ce" y="234.572079"/>
     <use style="fill:#4b4b4b;stroke:#4b4b4b;stroke-linejoin:miter;" x="204.66" xlink:href="#mf33c11a6ce" y="236.326181"/>
     <use style="fill:#4b4b4b;stroke:#4b4b4b;stroke-linejoin:miter;" x="204.66" xlink:href="#mf33c11a6ce" y="233.441932"/>
     <use style="fill:#4b4b4b;stroke:#4b4b4b;stroke-linejoin:miter;" x="204.66" xlink:href="#mf33c11a6ce" y="194.736399"/>
     <use style="fill:#4b4b4b;stroke:#4b4b4b;stroke-linejoin:miter;" x="204.66" xlink:href="#mf33c11a6ce" y="188.848217"/>
     <use style="fill:#4b4b4b;stroke:#4b4b4b;stroke-linejoin:miter;" x="204.66" xlink:href="#mf33c11a6ce" y="191.991325"/>
     <use style="fill:#4b4b4b;stroke:#4b4b4b;stroke-linejoin:miter;" x="204.66" xlink:href="#mf33c11a6ce" y="189.93252"/>
     <use style="fill:#4b4b4b;stroke:#4b4b4b;stroke-linejoin:miter;" x="204.66" xlink:href="#mf33c11a6ce" y="190.344281"/>
     <use style="fill:#4b4b4b;stroke:#4b4b4b;stroke-linejoin:miter;" x="204.66" xlink:href="#mf33c11a6ce" y="197.481472"/>
     <use style="fill:#4b4b4b;stroke:#4b4b4b;stroke-linejoin:miter;" x="204.66" xlink:href="#mf33c11a6ce" y="191.854072"/>
     <use style="fill:#4b4b4b;stroke:#4b4b4b;stroke-linejoin:miter;" x="204.66" xlink:href="#mf33c11a6ce" y="198.442248"/>
     <use style="fill:#4b4b4b;stroke:#4b4b4b;stroke-linejoin:miter;" x="204.66" xlink:href="#mf33c11a6ce" y="196.65795"/>
     <use style="fill:#4b4b4b;stroke:#4b4b4b;stroke-linejoin:miter;" x="204.66" xlink:href="#mf33c11a6ce" y="196.795204"/>
     <use style="fill:#4b4b4b;stroke:#4b4b4b;stroke-linejoin:miter;" x="204.66" xlink:href="#mf33c11a6ce" y="198.952831"/>
    </g>
   </g>
   <g id="line2d_34">
    <path clip-path="url(#pbe2a23402e)" d="M 238.14 213.505837 
L 238.14 230.01059 
" style="fill:none;stroke:#4b4b4b;stroke-linecap:round;stroke-width:1.5;"/>
   </g>
   <g id="line2d_35">
    <path clip-path="url(#pbe2a23402e)" d="M 238.14 202.010843 
L 238.14 184.991389 
" style="fill:none;stroke:#4b4b4b;stroke-linecap:round;stroke-width:1.5;"/>
   </g>
   <g id="line2d_36">
    <path clip-path="url(#pbe2a23402e)" d="M 231.444 230.01059 
L 244.836 230.01059 
" style="fill:none;stroke:#4b4b4b;stroke-linecap:round;stroke-width:1.5;"/>
   </g>
   <g id="line2d_37">
    <path clip-path="url(#pbe2a23402e)" d="M 231.444 184.991389 
L 244.836 184.991389 
" style="fill:none;stroke:#4b4b4b;stroke-linecap:round;stroke-width:1.5;"/>
   </g>
   <g id="line2d_38">
    <g clip-path="url(#pbe2a23402e)">
     <use style="fill:#4b4b4b;stroke:#4b4b4b;stroke-linejoin:miter;" x="238.14" xlink:href="#mf33c11a6ce" y="230.834112"/>
     <use style="fill:#4b4b4b;stroke:#4b4b4b;stroke-linejoin:miter;" x="238.14" xlink:href="#mf33c11a6ce" y="180.462018"/>
     <use style="fill:#4b4b4b;stroke:#4b4b4b;stroke-linejoin:miter;" x="238.14" xlink:href="#mf33c11a6ce" y="184.716881"/>
     <use style="fill:#4b4b4b;stroke:#4b4b4b;stroke-linejoin:miter;" x="238.14" xlink:href="#mf33c11a6ce" y="175.658139"/>
     <use style="fill:#4b4b4b;stroke:#4b4b4b;stroke-linejoin:miter;" x="238.14" xlink:href="#mf33c11a6ce" y="181.011032"/>
     <use style="fill:#4b4b4b;stroke:#4b4b4b;stroke-linejoin:miter;" x="238.14" xlink:href="#mf33c11a6ce" y="183.069837"/>
     <use style="fill:#4b4b4b;stroke:#4b4b4b;stroke-linejoin:miter;" x="238.14" xlink:href="#mf33c11a6ce" y="177.030676"/>
     <use style="fill:#4b4b4b;stroke:#4b4b4b;stroke-linejoin:miter;" x="238.14" xlink:href="#mf33c11a6ce" y="181.422793"/>
     <use style="fill:#4b4b4b;stroke:#4b4b4b;stroke-linejoin:miter;" x="238.14" xlink:href="#mf33c11a6ce" y="176.215389"/>
    </g>
   </g>
   <g id="line2d_39">
    <path clip-path="url(#pbe2a23402e)" d="M 271.62 202.430839 
L 271.62 219.606763 
" style="fill:none;stroke:#4b4b4b;stroke-linecap:round;stroke-width:1.5;"/>
   </g>
   <g id="line2d_40">
    <path clip-path="url(#pbe2a23402e)" d="M 271.62 188.354103 
L 271.62 168.795456 
" style="fill:none;stroke:#4b4b4b;stroke-linecap:round;stroke-width:1.5;"/>
   </g>
   <g id="line2d_41">
    <path clip-path="url(#pbe2a23402e)" d="M 264.924 219.606763 
L 278.316 219.606763 
" style="fill:none;stroke:#4b4b4b;stroke-linecap:round;stroke-width:1.5;"/>
   </g>
   <g id="line2d_42">
    <path clip-path="url(#pbe2a23402e)" d="M 264.924 168.795456 
L 278.316 168.795456 
" style="fill:none;stroke:#4b4b4b;stroke-linecap:round;stroke-width:1.5;"/>
   </g>
   <g id="line2d_43">
    <g clip-path="url(#pbe2a23402e)">
     <use style="fill:#4b4b4b;stroke:#4b4b4b;stroke-linejoin:miter;" x="271.62" xlink:href="#mf33c11a6ce" y="229.049815"/>
     <use style="fill:#4b4b4b;stroke:#4b4b4b;stroke-linejoin:miter;" x="271.62" xlink:href="#mf33c11a6ce" y="146.29409"/>
     <use style="fill:#4b4b4b;stroke:#4b4b4b;stroke-linejoin:miter;" x="271.62" xlink:href="#mf33c11a6ce" y="163.854324"/>
     <use style="fill:#4b4b4b;stroke:#4b4b4b;stroke-linejoin:miter;" x="271.62" xlink:href="#mf33c11a6ce" y="163.854324"/>
     <use style="fill:#4b4b4b;stroke:#4b4b4b;stroke-linejoin:miter;" x="271.62" xlink:href="#mf33c11a6ce" y="166.08552"/>
     <use style="fill:#4b4b4b;stroke:#4b4b4b;stroke-linejoin:miter;" x="271.62" xlink:href="#mf33c11a6ce" y="166.187637"/>
     <use style="fill:#4b4b4b;stroke:#4b4b4b;stroke-linejoin:miter;" x="271.62" xlink:href="#mf33c11a6ce" y="148.756421"/>
     <use style="fill:#4b4b4b;stroke:#4b4b4b;stroke-linejoin:miter;" x="271.62" xlink:href="#mf33c11a6ce" y="165.02098"/>
     <use style="fill:#4b4b4b;stroke:#4b4b4b;stroke-linejoin:miter;" x="271.62" xlink:href="#mf33c11a6ce" y="159.736714"/>
     <use style="fill:#4b4b4b;stroke:#4b4b4b;stroke-linejoin:miter;" x="271.62" xlink:href="#mf33c11a6ce" y="158.08967"/>
     <use style="fill:#4b4b4b;stroke:#4b4b4b;stroke-linejoin:miter;" x="271.62" xlink:href="#mf33c11a6ce" y="161.658266"/>
     <use style="fill:#4b4b4b;stroke:#4b4b4b;stroke-linejoin:miter;" x="271.62" xlink:href="#mf33c11a6ce" y="159.736714"/>
    </g>
   </g>
   <g id="line2d_44">
    <path clip-path="url(#pbe2a23402e)" d="M 305.1 187.308917 
L 305.1 211.344092 
" style="fill:none;stroke:#4b4b4b;stroke-linecap:round;stroke-width:1.5;"/>
   </g>
   <g id="line2d_45">
    <path clip-path="url(#pbe2a23402e)" d="M 305.1 167.6288 
L 305.1 139.148665 
" style="fill:none;stroke:#4b4b4b;stroke-linecap:round;stroke-width:1.5;"/>
   </g>
   <g id="line2d_46">
    <path clip-path="url(#pbe2a23402e)" d="M 298.404 211.344092 
L 311.796 211.344092 
" style="fill:none;stroke:#4b4b4b;stroke-linecap:round;stroke-width:1.5;"/>
   </g>
   <g id="line2d_47">
    <path clip-path="url(#pbe2a23402e)" d="M 298.404 139.148665 
L 311.796 139.148665 
" style="fill:none;stroke:#4b4b4b;stroke-linecap:round;stroke-width:1.5;"/>
   </g>
   <g id="line2d_48">
    <g clip-path="url(#pbe2a23402e)">
     <use style="fill:#4b4b4b;stroke:#4b4b4b;stroke-linejoin:miter;" x="305.1" xlink:href="#mf33c11a6ce" y="218.206775"/>
     <use style="fill:#4b4b4b;stroke:#4b4b4b;stroke-linejoin:miter;" x="305.1" xlink:href="#mf33c11a6ce" y="130.913445"/>
     <use style="fill:#4b4b4b;stroke:#4b4b4b;stroke-linejoin:miter;" x="305.1" xlink:href="#mf33c11a6ce" y="133.658518"/>
     <use style="fill:#4b4b4b;stroke:#4b4b4b;stroke-linejoin:miter;" x="305.1" xlink:href="#mf33c11a6ce" y="135.580069"/>
     <use style="fill:#4b4b4b;stroke:#4b4b4b;stroke-linejoin:miter;" x="305.1" xlink:href="#mf33c11a6ce" y="104.011727"/>
     <use style="fill:#4b4b4b;stroke:#4b4b4b;stroke-linejoin:miter;" x="305.1" xlink:href="#mf33c11a6ce" y="135.066741"/>
    </g>
   </g>
   <g id="line2d_49">
    <path clip-path="url(#pbe2a23402e)" d="M 338.58 164.134184 
L 338.58 186.089418 
" style="fill:none;stroke:#4b4b4b;stroke-linecap:round;stroke-width:1.5;"/>
   </g>
   <g id="line2d_50">
    <path clip-path="url(#pbe2a23402e)" d="M 338.58 144.716771 
L 338.58 118.560615 
" style="fill:none;stroke:#4b4b4b;stroke-linecap:round;stroke-width:1.5;"/>
   </g>
   <g id="line2d_51">
    <path clip-path="url(#pbe2a23402e)" d="M 331.884 186.089418 
L 345.276 186.089418 
" style="fill:none;stroke:#4b4b4b;stroke-linecap:round;stroke-width:1.5;"/>
   </g>
   <g id="line2d_52">
    <path clip-path="url(#pbe2a23402e)" d="M 331.884 118.560615 
L 345.276 118.560615 
" style="fill:none;stroke:#4b4b4b;stroke-linecap:round;stroke-width:1.5;"/>
   </g>
   <g id="line2d_53">
    <g clip-path="url(#pbe2a23402e)">
     <use style="fill:#4b4b4b;stroke:#4b4b4b;stroke-linejoin:miter;" x="338.58" xlink:href="#mf33c11a6ce" y="113.938735"/>
     <use style="fill:#4b4b4b;stroke:#4b4b4b;stroke-linejoin:miter;" x="338.58" xlink:href="#mf33c11a6ce" y="91.677289"/>
     <use style="fill:#4b4b4b;stroke:#4b4b4b;stroke-linejoin:miter;" x="338.58" xlink:href="#mf33c11a6ce" y="83.79234"/>
     <use style="fill:#4b4b4b;stroke:#4b4b4b;stroke-linejoin:miter;" x="338.58" xlink:href="#mf33c11a6ce" y="98.911106"/>
    </g>
   </g>
   <g id="line2d_54">
    <path clip-path="url(#pbe2a23402e)" d="M 372.06 155.790671 
L 372.06 200.98144 
" style="fill:none;stroke:#4b4b4b;stroke-linecap:round;stroke-width:1.5;"/>
   </g>
   <g id="line2d_55">
    <path clip-path="url(#pbe2a23402e)" d="M 372.06 121.889016 
L 372.06 80.129589 
" style="fill:none;stroke:#4b4b4b;stroke-linecap:round;stroke-width:1.5;"/>
   </g>
   <g id="line2d_56">
    <path clip-path="url(#pbe2a23402e)" d="M 365.364 200.98144 
L 378.756 200.98144 
" style="fill:none;stroke:#4b4b4b;stroke-linecap:round;stroke-width:1.5;"/>
   </g>
   <g id="line2d_57">
    <path clip-path="url(#pbe2a23402e)" d="M 365.364 80.129589 
L 378.756 80.129589 
" style="fill:none;stroke:#4b4b4b;stroke-linecap:round;stroke-width:1.5;"/>
   </g>
   <g id="line2d_58">
    <g clip-path="url(#pbe2a23402e)">
     <use style="fill:#4b4b4b;stroke:#4b4b4b;stroke-linejoin:miter;" x="372.06" xlink:href="#mf33c11a6ce" y="207.775497"/>
     <use style="fill:#4b4b4b;stroke:#4b4b4b;stroke-linejoin:miter;" x="372.06" xlink:href="#mf33c11a6ce" y="44.443636"/>
     <use style="fill:#4b4b4b;stroke:#4b4b4b;stroke-linejoin:miter;" x="372.06" xlink:href="#mf33c11a6ce" y="47.18871"/>
    </g>
   </g>
   <g id="line2d_59">
    <path clip-path="url(#pbe2a23402e)" d="M 57.348 237.930127 
L 84.132 237.930127 
" style="fill:none;stroke:#4b4b4b;stroke-linecap:round;stroke-width:1.5;"/>
   </g>
   <g id="line2d_60">
    <path clip-path="url(#pbe2a23402e)" d="M 90.828 235.22623 
L 117.612 235.22623 
" style="fill:none;stroke:#4b4b4b;stroke-linecap:round;stroke-width:1.5;"/>
   </g>
   <g id="line2d_61">
    <path clip-path="url(#pbe2a23402e)" d="M 124.308 228.020412 
L 151.092 228.020412 
" style="fill:none;stroke:#4b4b4b;stroke-linecap:round;stroke-width:1.5;"/>
   </g>
   <g id="line2d_62">
    <path clip-path="url(#pbe2a23402e)" d="M 157.788 222.049878 
L 184.572 222.049878 
" style="fill:none;stroke:#4b4b4b;stroke-linecap:round;stroke-width:1.5;"/>
   </g>
   <g id="line2d_63">
    <path clip-path="url(#pbe2a23402e)" d="M 191.268 215.187195 
L 218.052 215.187195 
" style="fill:none;stroke:#4b4b4b;stroke-linecap:round;stroke-width:1.5;"/>
   </g>
   <g id="line2d_64">
    <path clip-path="url(#pbe2a23402e)" d="M 224.748 207.775497 
L 251.532 207.775497 
" style="fill:none;stroke:#4b4b4b;stroke-linecap:round;stroke-width:1.5;"/>
   </g>
   <g id="line2d_65">
    <path clip-path="url(#pbe2a23402e)" d="M 258.228 196.756498 
L 285.012 196.756498 
" style="fill:none;stroke:#4b4b4b;stroke-linecap:round;stroke-width:1.5;"/>
   </g>
   <g id="line2d_66">
    <path clip-path="url(#pbe2a23402e)" d="M 291.708 177.648318 
L 318.492 177.648318 
" style="fill:none;stroke:#4b4b4b;stroke-linecap:round;stroke-width:1.5;"/>
   </g>
   <g id="line2d_67">
    <path clip-path="url(#pbe2a23402e)" d="M 325.188 156.991641 
L 351.972 156.991641 
" style="fill:none;stroke:#4b4b4b;stroke-linecap:round;stroke-width:1.5;"/>
   </g>
   <g id="line2d_68">
    <path clip-path="url(#pbe2a23402e)" d="M 358.668 133.002446 
L 385.452 133.002446 
" style="fill:none;stroke:#4b4b4b;stroke-linecap:round;stroke-width:1.5;"/>
   </g>
   <g id="patch_13">
    <path d="M 54 252 
L 54 34.56 
" style="fill:none;stroke:#cccccc;stroke-linecap:square;stroke-linejoin:miter;stroke-width:0.8;"/>
   </g>
   <g id="patch_14">
    <path d="M 388.8 252 
L 388.8 34.56 
" style="fill:none;stroke:#cccccc;stroke-linecap:square;stroke-linejoin:miter;stroke-width:0.8;"/>
   </g>
   <g id="patch_15">
    <path d="M 54 252 
L 388.8 252 
" style="fill:none;stroke:#cccccc;stroke-linecap:square;stroke-linejoin:miter;stroke-width:0.8;"/>
   </g>
   <g id="patch_16">
    <path d="M 54 34.56 
L 388.8 34.56 
" style="fill:none;stroke:#cccccc;stroke-linecap:square;stroke-linejoin:miter;stroke-width:0.8;"/>
   </g>
  </g>
 </g>
 <defs>
  <clipPath id="pbe2a23402e">
   <rect height="217.44" width="334.8" x="54" y="34.56"/>
  </clipPath>
 </defs>
</svg>
